# Blender v2.91.2 OBJ File: 'WoodenCrate_lowpoly.blend'
# www.blender.org
mtllib WoodenCrate_lowpoly.mtl
o Cube.010_Cube.025
v -2.354944 1.902779 1.393149
v -2.354944 0.046037 1.393149
v -2.674937 1.902779 1.391049
v -2.352844 1.902779 1.073156
v -2.352844 0.046037 1.073156
v -2.672837 1.902779 1.071056
v -2.672837 0.046037 1.071056
v -2.674937 0.046037 1.391049
v 2.669625 1.902780 -1.067948
v 2.669625 0.046038 -1.067948
v 2.349632 1.902780 -1.070048
v 2.671725 1.902780 -1.387941
v 2.671725 0.046038 -1.387941
v 2.351732 1.902780 -1.390041
v 2.351732 0.046038 -1.390041
v 2.349632 0.046038 -1.070049
v 2.653257 1.902779 1.426018
v 2.653257 0.046038 1.426017
v 2.333264 1.902779 1.423918
v 2.655357 1.902779 1.106024
v 2.655357 0.046038 1.106024
v 2.335364 1.902779 1.103924
v 2.335364 0.046038 1.103924
v 2.333264 0.046038 1.423917
v -2.338590 1.902779 -1.098742
v -2.338590 0.046037 -1.098742
v -2.658583 1.902779 -1.100842
v -2.336490 1.902779 -1.418735
v -2.336490 0.046037 -1.418735
v -2.656483 1.902779 -1.420835
v -2.656483 0.046037 -1.420835
v -2.658583 0.046037 -1.100842
v 2.769527 0.044519 -0.740444
v 2.769527 -0.044518 -0.740444
v -2.773000 0.044518 -0.776819
v 2.774439 0.044519 -1.488838
v 2.774439 -0.044518 -1.488838
v -2.768088 0.044518 -1.525213
v -2.768088 -0.044519 -1.525213
v -2.773000 -0.044519 -0.776819
v 2.662415 1.003823 1.518747
v 2.662999 1.003823 1.429712
v -2.695550 1.003822 1.483583
v -2.694966 1.003822 1.394548
v 2.662415 1.752233 1.518747
v 2.662999 1.752233 1.429712
v -2.695550 1.752232 1.483583
v -2.694966 1.752232 1.394548
v 2.762191 0.044519 0.377347
v 2.762191 -0.044518 0.377347
v -2.780336 0.044518 0.340972
v 2.766971 0.044519 -0.351047
v 2.766972 -0.044518 -0.351047
v -2.775555 0.044518 -0.387423
v -2.775555 -0.044519 -0.387423
v -2.780336 -0.044519 0.340972
v 2.754693 0.044519 1.519832
v 2.754693 -0.044519 1.519832
v -2.787834 0.044518 1.483456
v 2.759604 0.044519 0.771438
v 2.759605 -0.044519 0.771438
v -2.782922 0.044518 0.735063
v -2.782922 -0.044520 0.735063
v -2.787834 -0.044520 1.483456
v 2.681507 1.003824 -1.390331
v 2.682091 1.003824 -1.479367
v -2.676457 1.003822 -1.425496
v 2.681507 1.752233 -1.390331
v 2.682091 1.752233 -1.479367
v -2.676458 1.752232 -1.425496
v -2.675873 1.752232 -1.514531
v -2.675873 1.003822 -1.514531
v 2.681507 0.049256 -1.390332
v 2.682091 0.049256 -1.479367
v -2.676457 0.049255 -1.425496
v 2.681507 0.797666 -1.390332
v 2.682091 0.797666 -1.479367
v -2.676457 0.797665 -1.425496
v -2.675873 0.797665 -1.514531
v -2.675873 0.049255 -1.514531
v 2.662415 0.049256 1.518747
v 2.662999 0.049256 1.429712
v -2.695550 0.049255 1.483583
v 2.662415 0.797666 1.518747
v 2.662999 0.797666 1.429712
v -2.695550 0.797665 1.483583
v -2.694965 0.797665 1.394548
v -2.694965 0.049255 1.394548
v -2.682909 1.003822 -1.538688
v -2.771944 1.003822 -1.539273
v -2.702857 1.003822 1.500799
v -2.682909 1.752232 -1.538688
v -2.771944 1.752232 -1.539273
v -2.702857 1.752232 1.500799
v -2.690317 1.573401 -0.409895
v -2.690026 1.555942 -0.454173
v -2.779352 1.573401 -0.410480
v -2.690708 1.588704 -0.350308
v -2.779743 1.588704 -0.350892
v -2.691185 1.601263 -0.277700
v -2.780220 1.601263 -0.278284
v -2.691728 1.610595 -0.194862
v -2.780764 1.610595 -0.195447
v -2.692318 1.616342 -0.104978
v -2.781354 1.616342 -0.105563
v -2.692932 1.618282 -0.011503
v -2.781967 1.618282 -0.012087
v -2.693545 1.616342 0.081973
v -2.782581 1.616342 0.081389
v -2.694135 1.610595 0.171857
v -2.783170 1.610595 0.171273
v -2.694679 1.601263 0.254695
v -2.783714 1.601263 0.254110
v -2.695155 1.588704 0.327302
v -2.784191 1.588704 0.326718
v -2.695546 1.573401 0.386890
v -2.784582 1.573401 0.386306
v -2.695837 1.555942 0.431168
v -2.784872 1.555942 0.430583
v -2.696016 1.536998 0.458433
v -2.785051 1.536998 0.457849
v -2.696076 1.517297 0.467640
v -2.785112 1.517297 0.467056
v -2.696016 1.497596 0.458433
v -2.785051 1.497596 0.457849
v -2.695837 1.478652 0.431168
v -2.784872 1.478652 0.430583
v -2.695546 1.461193 0.386890
v -2.784582 1.461193 0.386306
v -2.695155 1.445890 0.327302
v -2.784191 1.445890 0.326718
v -2.694679 1.433331 0.254695
v -2.783714 1.433331 0.254110
v -2.694135 1.423999 0.171857
v -2.783170 1.423999 0.171273
v -2.693545 1.418252 0.081973
v -2.782581 1.418252 0.081389
v -2.692932 1.416312 -0.011503
v -2.781967 1.416312 -0.012087
v -2.692318 1.418252 -0.104979
v -2.781354 1.418252 -0.105564
v -2.691728 1.423999 -0.194863
v -2.780764 1.423999 -0.195448
v -2.691185 1.433331 -0.277701
v -2.780220 1.433331 -0.278285
v -2.690708 1.445890 -0.350308
v -2.779743 1.445890 -0.350893
v -2.690317 1.461193 -0.409896
v -2.779352 1.461193 -0.410480
v -2.690026 1.478652 -0.454174
v -2.779062 1.478652 -0.454758
v -2.689847 1.497596 -0.481439
v -2.778883 1.497596 -0.482024
v -2.689787 1.517297 -0.490646
v -2.778822 1.517297 -0.491230
v -2.689847 1.536998 -0.481439
v -2.778883 1.536998 -0.482024
v -2.779062 1.555942 -0.454758
v -2.791892 1.752232 1.500214
v -2.791892 1.003822 1.500214
v -2.682909 0.052509 -1.538688
v -2.771944 0.052509 -1.539273
v -2.702857 0.052509 1.500798
v -2.682909 0.800919 -1.538688
v -2.771944 0.800919 -1.539273
v -2.702857 0.800919 1.500798
v -2.791892 0.800919 1.500214
v -2.791892 0.052509 1.500214
v 2.776064 1.003823 -1.502861
v 2.687029 1.003823 -1.503446
v 2.756116 1.003823 1.536626
v 2.776064 1.752234 -1.502861
v 2.687028 1.752233 -1.503446
v 2.756116 1.752234 1.536626
v 2.768656 1.573402 -0.374068
v 2.768946 1.555943 -0.418346
v 2.679620 1.573402 -0.374653
v 2.768265 1.588705 -0.314481
v 2.679229 1.588705 -0.315065
v 2.767788 1.601264 -0.241873
v 2.678753 1.601264 -0.242457
v 2.767245 1.610596 -0.159035
v 2.678209 1.610596 -0.159620
v 2.766654 1.616343 -0.069151
v 2.677619 1.616343 -0.069736
v 2.766041 1.618283 0.024324
v 2.677006 1.618283 0.023740
v 2.765428 1.616343 0.117800
v 2.676392 1.616343 0.117216
v 2.764838 1.610596 0.207684
v 2.675802 1.610596 0.207100
v 2.764294 1.601264 0.290522
v 2.675259 1.601264 0.289937
v 2.763818 1.588705 0.363129
v 2.674782 1.588705 0.362545
v 2.763427 1.573402 0.422717
v 2.674391 1.573402 0.422133
v 2.763136 1.555943 0.466995
v 2.674100 1.555943 0.466410
v 2.762957 1.536999 0.494261
v 2.673921 1.536999 0.493676
v 2.762897 1.517298 0.503467
v 2.673861 1.517298 0.502883
v 2.762957 1.497597 0.494261
v 2.673921 1.497597 0.493676
v 2.763136 1.478653 0.466995
v 2.674100 1.478653 0.466410
v 2.763427 1.461194 0.422717
v 2.674391 1.461194 0.422133
v 2.763818 1.445891 0.363129
v 2.674782 1.445891 0.362545
v 2.764294 1.433332 0.290522
v 2.675259 1.433332 0.289937
v 2.764838 1.424000 0.207684
v 2.675802 1.424000 0.207100
v 2.765428 1.418253 0.117800
v 2.676392 1.418253 0.117216
v 2.766041 1.416313 0.024324
v 2.677006 1.416313 0.023740
v 2.766654 1.418253 -0.069152
v 2.677619 1.418253 -0.069737
v 2.767245 1.424000 -0.159036
v 2.678209 1.424000 -0.159621
v 2.767788 1.433332 -0.241874
v 2.678753 1.433332 -0.242458
v 2.768265 1.445891 -0.314481
v 2.679229 1.445891 -0.315066
v 2.768656 1.461194 -0.374069
v 2.679620 1.461194 -0.374653
v 2.768946 1.478653 -0.418346
v 2.679911 1.478653 -0.418931
v 2.769125 1.497597 -0.445612
v 2.680090 1.497597 -0.446197
v 2.769186 1.517298 -0.454819
v 2.680150 1.517298 -0.455403
v 2.769125 1.536999 -0.445612
v 2.680090 1.536999 -0.446197
v 2.679911 1.555943 -0.418931
v 2.667080 1.752233 1.536041
v 2.667081 1.003823 1.536041
v 2.776064 0.052510 -1.502861
v 2.687029 0.052510 -1.503446
v 2.756116 0.052510 1.536625
v 2.776064 0.800920 -1.502861
v 2.687029 0.800920 -1.503446
v 2.756116 0.800920 1.536625
v 2.667081 0.800920 1.536041
v 2.667081 0.052510 1.536041
vt 0.125000 0.500000
vt 0.375000 0.500000
vt 0.375000 0.750000
vt 0.125000 0.750000
vt 0.375000 0.750000
vt 0.625000 0.750000
vt 0.625000 1.000000
vt 0.375000 1.000000
vt 0.375000 0.250000
vt 0.625000 0.250000
vt 0.625000 0.500000
vt 0.375000 0.500000
vt 0.625000 0.750000
vt 0.375000 0.750000
vt 0.875000 0.500000
vt 0.875000 0.750000
vt 0.375000 0.000000
vt 0.625000 0.000000
vt 0.625000 1.000000
vt 0.375000 1.000000
vt 0.125000 0.500000
vt 0.125000 0.750000
vt 0.625000 0.500000
vt 0.875000 0.500000
vt 0.875000 0.750000
vt 0.625000 0.750000
vt 0.375000 0.750000
vt 0.625000 1.000000
vt 0.375000 1.000000
vt 0.375000 0.000000
vt 0.625000 0.000000
vt 0.625000 0.250000
vt 0.375000 0.250000
vt 0.125000 0.500000
vt 0.375000 0.500000
vt 0.125000 0.750000
vt 0.375000 0.250000
vt 0.625000 0.250000
vt 0.625000 0.500000
vt 0.375000 0.500000
vt 0.625000 0.750000
vt 0.375000 0.750000
vt 0.875000 0.500000
vt 0.875000 0.750000
vt 0.375000 0.000000
vt 0.625000 0.000000
vt 0.625000 1.000000
vt 0.375000 1.000000
vt 0.125000 0.500000
vt 0.125000 0.750000
vt 0.375000 0.250000
vt 0.625000 0.250000
vt 0.625000 0.500000
vt 0.375000 0.500000
vt 0.625000 0.750000
vt 0.375000 0.750000
vt 0.875000 0.500000
vt 0.875000 0.750000
vt 0.375000 0.000000
vt 0.625000 0.000000
vt 0.625000 1.000000
vt 0.375000 1.000000
vt 0.125000 0.500000
vt 0.125000 0.750000
vt 0.375000 0.250000
vt 0.625000 0.250000
vt 0.625000 0.500000
vt 0.375000 0.500000
vt 0.625000 0.750000
vt 0.375000 0.750000
vt 0.875000 0.500000
vt 0.875000 0.750000
vt 0.375000 0.000000
vt 0.625000 0.000000
vt 0.625000 1.000000
vt 0.375000 1.000000
vt 0.125000 0.500000
vt 0.125000 0.750000
vt 0.375000 0.250000
vt 0.625000 0.250000
vt 0.625000 0.500000
vt 0.375000 0.500000
vt 0.625000 0.750000
vt 0.375000 0.750000
vt 0.875000 0.500000
vt 0.875000 0.750000
vt 0.375000 0.000000
vt 0.625000 0.000000
vt 0.625000 1.000000
vt 0.375000 1.000000
vt 0.125000 0.500000
vt 0.125000 0.750000
vt 0.375000 0.250000
vt 0.625000 0.250000
vt 0.625000 0.500000
vt 0.375000 0.500000
vt 0.625000 0.750000
vt 0.375000 0.750000
vt 0.875000 0.500000
vt 0.875000 0.750000
vt 0.375000 0.000000
vt 0.625000 0.000000
vt 0.625000 1.000000
vt 0.375000 1.000000
vt 0.125000 0.500000
vt 0.125000 0.750000
vt 0.000000 0.000000
vt 0.000000 0.000000
vt 0.000000 0.000000
vt 0.000000 0.000000
vt 0.000000 0.000000
vt 0.000000 0.000000
vt 0.000000 0.000000
vt 0.000000 0.000000
vt 0.000000 0.000000
vt 0.000000 0.000000
vt 0.000000 0.000000
vt 0.000000 0.000000
vt 0.000000 0.000000
vt 0.000000 0.000000
vt 0.000000 0.000000
vt 0.000000 0.000000
vt 0.000000 0.000000
vt 0.000000 0.000000
vt 0.000000 0.000000
vt 0.000000 0.000000
vt 0.000000 0.000000
vt 0.000000 0.000000
vt 0.000000 0.000000
vt 0.000000 0.000000
vt 0.000000 0.000000
vt 0.000000 0.000000
vt 0.000000 0.000000
vt 0.000000 0.000000
vt 0.000000 0.000000
vt 0.000000 0.000000
vt 0.000000 0.000000
vt 0.000000 0.000000
vt 0.000000 0.000000
vt 0.000000 0.000000
vt 0.000000 0.000000
vt 0.000000 0.000000
vt 0.000000 0.000000
vt 0.000000 0.000000
vt 0.000000 0.000000
vt 0.000000 0.000000
vt 0.000000 0.000000
vt 0.000000 0.000000
vt 0.000000 0.000000
vt 0.000000 0.000000
vt 0.000000 0.000000
vt 0.000000 0.000000
vt 0.000000 0.000000
vt 0.000000 0.000000
vt 0.000000 0.000000
vt 0.000000 0.000000
vt 0.000000 0.000000
vt 0.000000 0.000000
vt 0.000000 0.000000
vt 0.000000 0.000000
vt 0.000000 0.000000
vt 0.000000 0.000000
vt 0.000000 0.000000
vt 0.000000 0.000000
vt 0.000000 0.000000
vt 0.000000 0.000000
vt 0.000000 0.000000
vt 0.000000 0.000000
vt 0.000000 0.000000
vt 0.000000 0.000000
vt 0.000000 0.000000
vt 0.000000 0.000000
vt 0.000000 0.000000
vt 0.000000 0.000000
vt 0.000000 0.000000
vt 0.000000 0.000000
vt 0.000000 0.000000
vt 0.000000 0.000000
vt 0.375000 0.250000
vt 0.625000 0.250000
vt 0.625000 0.500000
vt 0.375000 0.500000
vt 0.625000 0.750000
vt 0.375000 0.750000
vt 0.875000 0.500000
vt 0.875000 0.750000
vt 0.375000 0.000000
vt 0.625000 0.000000
vt 0.625000 1.000000
vt 0.375000 1.000000
vt 0.125000 0.500000
vt 0.125000 0.750000
vt 0.000000 0.000000
vt 0.000000 0.000000
vt 0.000000 0.000000
vt 0.000000 0.000000
vt 0.000000 0.000000
vt 0.000000 0.000000
vt 0.000000 0.000000
vt 0.000000 0.000000
vt 0.000000 0.000000
vt 0.000000 0.000000
vt 0.000000 0.000000
vt 0.000000 0.000000
vt 0.000000 0.000000
vt 0.000000 0.000000
vt 0.000000 0.000000
vt 0.000000 0.000000
vt 0.000000 0.000000
vt 0.000000 0.000000
vt 0.000000 0.000000
vt 0.000000 0.000000
vt 0.000000 0.000000
vt 0.000000 0.000000
vt 0.000000 0.000000
vt 0.000000 0.000000
vt 0.000000 0.000000
vt 0.000000 0.000000
vt 0.000000 0.000000
vt 0.000000 0.000000
vt 0.000000 0.000000
vt 0.000000 0.000000
vt 0.000000 0.000000
vt 0.000000 0.000000
vt 0.000000 0.000000
vt 0.000000 0.000000
vt 0.000000 0.000000
vt 0.000000 0.000000
vt 0.000000 0.000000
vt 0.000000 0.000000
vt 0.000000 0.000000
vt 0.000000 0.000000
vt 0.000000 0.000000
vt 0.000000 0.000000
vt 0.000000 0.000000
vt 0.000000 0.000000
vt 0.000000 0.000000
vt 0.000000 0.000000
vt 0.000000 0.000000
vt 0.000000 0.000000
vt 0.000000 0.000000
vt 0.000000 0.000000
vt 0.000000 0.000000
vt 0.000000 0.000000
vt 0.000000 0.000000
vt 0.000000 0.000000
vt 0.000000 0.000000
vt 0.000000 0.000000
vt 0.000000 0.000000
vt 0.000000 0.000000
vt 0.000000 0.000000
vt 0.000000 0.000000
vt 0.000000 0.000000
vt 0.000000 0.000000
vt 0.000000 0.000000
vt 0.000000 0.000000
vt 0.000000 0.000000
vt 0.000000 0.000000
vt 0.000000 0.000000
vt 0.000000 0.000000
vt 0.000000 0.000000
vt 0.000000 0.000000
vt 0.000000 0.000000
vt 0.000000 0.000000
vt 0.375000 0.250000
vt 0.625000 0.250000
vt 0.625000 0.500000
vt 0.375000 0.500000
vt 0.625000 0.750000
vt 0.375000 0.750000
vt 0.875000 0.500000
vt 0.875000 0.750000
vt 0.375000 0.000000
vt 0.625000 0.000000
vt 0.625000 1.000000
vt 0.375000 1.000000
vt 0.125000 0.500000
vt 0.125000 0.750000
vt 0.375000 0.250000
vt 0.625000 0.250000
vt 0.625000 0.500000
vt 0.375000 0.500000
vt 0.625000 0.750000
vt 0.375000 0.750000
vt 0.875000 0.500000
vt 0.875000 0.750000
vt 0.375000 0.000000
vt 0.625000 0.000000
vt 0.625000 1.000000
vt 0.375000 1.000000
vt 0.125000 0.500000
vt 0.125000 0.750000
vt 0.375000 0.250000
vt 0.625000 0.250000
vt 0.625000 0.500000
vt 0.625000 0.750000
vt 0.875000 0.500000
vt 0.875000 0.750000
vt 0.375000 0.000000
vt 0.625000 0.000000
vt 0.625000 1.000000
vt 0.375000 1.000000
vt 0.375000 0.250000
vt 0.625000 0.250000
vt 0.625000 0.500000
vt 0.375000 0.500000
vt 0.875000 0.500000
vt 0.875000 0.750000
vt 0.375000 0.000000
vt 0.625000 0.000000
vt 0.125000 0.500000
vt 0.125000 0.750000
vt 0.375000 0.250000
vt 0.625000 0.250000
vt 0.625000 0.500000
vt 0.375000 0.500000
vt 0.625000 0.750000
vt 0.375000 0.750000
vt 0.875000 0.500000
vt 0.875000 0.750000
vt 0.375000 0.000000
vt 0.625000 0.000000
vt 0.625000 1.000000
vt 0.375000 1.000000
vt 0.125000 0.500000
vt 0.125000 0.750000
vn 0.0000 -1.0000 0.0000
vn -1.0000 -0.0000 -0.0066
vn 1.0000 0.0000 0.0066
vn -0.0066 -0.0000 1.0000
vn -0.0000 1.0000 -0.0000
vn 0.0066 0.0000 -1.0000
vn -0.0024 -0.9303 0.3668
vn -0.0016 -0.9686 0.2487
vn -0.0011 -0.9854 0.1704
vn -0.0007 -0.9937 0.1119
vn -0.0004 -0.9980 0.0638
vn -0.0001 -0.9998 0.0208
vn 0.0001 -0.9998 -0.0208
vn 0.0004 -0.9980 -0.0638
vn 0.0007 -0.9937 -0.1119
vn 0.0011 -0.9854 -0.1704
vn 0.0016 -0.9686 -0.2487
vn 0.0024 -0.9303 -0.3668
vn 0.0037 -0.8212 -0.5706
vn 0.0059 -0.4234 -0.9059
vn 0.0059 0.4234 -0.9059
vn 0.0037 0.8212 -0.5706
vn 0.0024 0.9303 -0.3668
vn 0.0016 0.9686 -0.2487
vn 0.0011 0.9854 -0.1704
vn 0.0007 0.9937 -0.1119
vn 0.0004 0.9980 -0.0638
vn 0.0001 0.9998 -0.0208
vn -0.0001 0.9998 0.0208
vn -0.0004 0.9980 0.0638
vn -0.0007 0.9937 0.1119
vn -0.0011 0.9854 0.1704
vn -0.0016 0.9686 0.2487
vn -0.0024 0.9303 0.3668
vn -0.0037 0.8212 0.5706
vn -0.0059 0.4234 0.9059
vn -0.0059 -0.4234 0.9059
vn -0.0037 -0.8212 0.5706
usemtl Материал.002
s off
f 13/1/1 10/2/1 16/3/1 15/4/1
f 24/5/2 19/6/2 22/7/2 23/8/2
f 37/9/3 36/10/3 33/11/3 34/12/3
f 34/12/4 33/11/4 35/13/4 40/14/4
f 33/11/5 36/15/5 38/16/5 35/13/5
f 39/17/6 38/18/6 36/10/6 37/9/6
f 40/14/2 35/13/2 38/19/2 39/20/2
f 37/21/1 34/12/1 40/14/1 39/22/1
f 41/23/4 45/24/4 47/25/4 43/26/4
f 44/27/2 43/26/2 47/28/2 48/29/2
f 48/30/5 47/31/5 45/32/5 46/33/5
f 46/34/6 42/35/6 44/27/6 48/36/6
f 42/35/1 41/23/1 43/26/1 44/27/1
f 46/33/3 45/32/3 41/23/3 42/35/3
f 53/37/3 52/38/3 49/39/3 50/40/3
f 50/40/4 49/39/4 51/41/4 56/42/4
f 49/39/5 52/43/5 54/44/5 51/41/5
f 55/45/6 54/46/6 52/38/6 53/37/6
f 56/42/2 51/41/2 54/47/2 55/48/2
f 53/49/1 50/40/1 56/42/1 55/50/1
f 61/51/3 60/52/3 57/53/3 58/54/3
f 58/54/4 57/53/4 59/55/4 64/56/4
f 57/53/5 60/57/5 62/58/5 59/55/5
f 63/59/6 62/60/6 60/52/6 61/51/6
f 64/56/2 59/55/2 62/61/2 63/62/2
f 61/63/1 58/54/1 64/56/1 63/64/1
f 69/65/3 68/66/3 65/67/3 66/68/3
f 66/68/1 65/67/1 67/69/1 72/70/1
f 65/67/4 68/71/4 70/72/4 67/69/4
f 71/73/5 70/74/5 68/66/5 69/65/5
f 72/70/2 67/69/2 70/75/2 71/76/2
f 69/77/6 66/68/6 72/70/6 71/78/6
f 77/79/3 76/80/3 73/81/3 74/82/3
f 74/82/1 73/81/1 75/83/1 80/84/1
f 73/81/4 76/85/4 78/86/4 75/83/4
f 79/87/5 78/88/5 76/80/5 77/79/5
f 80/84/2 75/83/2 78/89/2 79/90/2
f 77/91/6 74/82/6 80/84/6 79/92/6
f 85/93/3 84/94/3 81/95/3 82/96/3
f 82/96/1 81/95/1 83/97/1 88/98/1
f 81/95/4 84/99/4 86/100/4 83/97/4
f 87/101/5 86/102/5 84/94/5 85/93/5
f 88/98/2 83/97/2 86/103/2 87/104/2
f 85/105/6 82/96/6 88/98/6 87/106/6
f 93/107/6 92/108/6 89/109/6 90/110/6
f 90/110/1 89/109/1 91/111/1 160/112/1
f 116/113/3 94/114/3 91/111/3 89/109/3 92/108/3 95/115/3 96/116/3 156/117/3 154/118/3 152/119/3 150/120/3 148/121/3 146/122/3 144/123/3 142/124/3 140/125/3 138/126/3 136/127/3 134/128/3 132/129/3 130/130/3 128/131/3 126/132/3 124/133/3 122/134/3 120/135/3 118/136/3
f 159/137/5 94/114/5 92/108/5 93/107/5
f 95/115/3 92/108/3 94/114/3 116/113/3 114/138/3 112/139/3 110/140/3 108/141/3 106/142/3 104/143/3 102/144/3 100/145/3 98/146/3
f 158/147/7 96/116/7 95/115/7 97/148/7
f 97/148/8 95/115/8 98/146/8 99/149/8
f 99/149/9 98/146/9 100/145/9 101/150/9
f 101/150/10 100/145/10 102/144/10 103/151/10
f 103/151/11 102/144/11 104/143/11 105/152/11
f 106/142/12 107/153/12 105/152/12 104/143/12
f 107/153/13 106/142/13 108/141/13 109/154/13
f 109/154/14 108/141/14 110/140/14 111/155/14
f 111/155/15 110/140/15 112/139/15 113/156/15
f 113/156/16 112/139/16 114/138/16 115/157/16
f 114/138/17 116/113/17 117/158/17 115/157/17
f 116/113/18 118/136/18 119/159/18 117/158/18
f 118/136/19 120/135/19 121/160/19 119/159/19
f 120/135/20 122/134/20 123/161/20 121/160/20
f 122/134/21 124/133/21 125/162/21 123/161/21
f 124/133/22 126/132/22 127/163/22 125/162/22
f 126/132/23 128/131/23 129/164/23 127/163/23
f 128/131/24 130/130/24 131/165/24 129/164/24
f 130/130/25 132/129/25 133/166/25 131/165/25
f 132/129/26 134/128/26 135/167/26 133/166/26
f 136/127/27 137/168/27 135/167/27 134/128/27
f 136/127/28 138/126/28 139/169/28 137/168/28
f 138/126/29 140/125/29 141/170/29 139/169/29
f 141/170/30 140/125/30 142/124/30 143/171/30
f 142/124/31 144/123/31 145/172/31 143/171/31
f 144/123/32 146/122/32 147/173/32 145/172/32
f 147/173/33 146/122/33 148/121/33 149/174/33
f 149/174/34 148/121/34 150/120/34 151/175/34
f 151/175/35 150/120/35 152/119/35 153/176/35
f 153/176/36 152/119/36 154/118/36 155/177/36
f 155/177/37 154/118/37 156/117/37 157/178/37
f 157/178/38 156/117/38 96/116/38 158/147/38
f 97/148/2 93/107/2 90/110/2 160/112/2 159/137/2 117/158/2 119/159/2 121/160/2 123/161/2 125/162/2 127/163/2 129/164/2 131/165/2 133/166/2 135/167/2 137/168/2 139/169/2 141/170/2 143/171/2 145/172/2 147/173/2 149/174/2 151/175/2 153/176/2 155/177/2 157/178/2 158/147/2
f 117/158/2 159/137/2 93/107/2 97/148/2 99/149/2 101/150/2 103/151/2 105/152/2 107/153/2 109/154/2 111/155/2 113/156/2 115/157/2
f 160/112/4 91/111/4 94/114/4 159/137/4
f 165/179/6 164/180/6 161/181/6 162/182/6
f 162/182/1 161/181/1 163/183/1 168/184/1
f 161/181/3 164/185/3 166/186/3 163/183/3
f 167/187/5 166/188/5 164/180/5 165/179/5
f 168/184/4 163/183/4 166/189/4 167/190/4
f 165/191/2 162/182/2 168/184/2 167/192/2
f 173/193/6 172/194/6 169/195/6 170/196/6
f 170/196/1 169/195/1 171/197/1 240/198/1
f 196/199/3 174/200/3 171/197/3 169/195/3 172/194/3 175/201/3 176/202/3 236/203/3 234/204/3 232/205/3 230/206/3 228/207/3 226/208/3 224/209/3 222/210/3 220/211/3 218/212/3 216/213/3 214/214/3 212/215/3 210/216/3 208/217/3 206/218/3 204/219/3 202/220/3 200/221/3 198/222/3
f 239/223/5 174/200/5 172/194/5 173/193/5
f 175/201/3 172/194/3 174/200/3 196/199/3 194/224/3 192/225/3 190/226/3 188/227/3 186/228/3 184/229/3 182/230/3 180/231/3 178/232/3
f 238/233/7 176/202/7 175/201/7 177/234/7
f 177/234/8 175/201/8 178/232/8 179/235/8
f 179/235/9 178/232/9 180/231/9 181/236/9
f 181/236/10 180/231/10 182/230/10 183/237/10
f 183/237/11 182/230/11 184/229/11 185/238/11
f 186/228/12 187/239/12 185/238/12 184/229/12
f 187/239/13 186/228/13 188/227/13 189/240/13
f 189/240/14 188/227/14 190/226/14 191/241/14
f 191/241/15 190/226/15 192/225/15 193/242/15
f 193/242/16 192/225/16 194/224/16 195/243/16
f 194/224/17 196/199/17 197/244/17 195/243/17
f 196/199/18 198/222/18 199/245/18 197/244/18
f 198/222/19 200/221/19 201/246/19 199/245/19
f 200/221/20 202/220/20 203/247/20 201/246/20
f 202/220/21 204/219/21 205/248/21 203/247/21
f 206/218/22 207/249/22 205/248/22 204/219/22
f 206/218/23 208/217/23 209/250/23 207/249/23
f 208/217/24 210/216/24 211/251/24 209/250/24
f 210/216/25 212/215/25 213/252/25 211/251/25
f 212/215/26 214/214/26 215/253/26 213/252/26
f 216/213/27 217/254/27 215/253/27 214/214/27
f 216/213/28 218/212/28 219/255/28 217/254/28
f 218/212/29 220/211/29 221/256/29 219/255/29
f 221/256/30 220/211/30 222/210/30 223/257/30
f 224/209/31 225/258/31 223/257/31 222/210/31
f 224/209/32 226/208/32 227/259/32 225/258/32
f 227/259/33 226/208/33 228/207/33 229/260/33
f 229/260/34 228/207/34 230/206/34 231/261/34
f 231/261/35 230/206/35 232/205/35 233/262/35
f 233/262/36 232/205/36 234/204/36 235/263/36
f 235/263/37 234/204/37 236/203/37 237/264/37
f 237/264/38 236/203/38 176/202/38 238/233/38
f 177/234/2 173/193/2 170/196/2 240/198/2 239/223/2 197/244/2 199/245/2 201/246/2 203/247/2 205/248/2 207/249/2 209/250/2 211/251/2 213/252/2 215/253/2 217/254/2 219/255/2 221/256/2 223/257/2 225/258/2 227/259/2 229/260/2 231/261/2 233/262/2 235/263/2 237/264/2 238/233/2
f 197/244/2 239/223/2 173/193/2 177/234/2 179/235/2 181/236/2 183/237/2 185/238/2 187/239/2 189/240/2 191/241/2 193/242/2 195/243/2
f 240/198/4 171/197/4 174/200/4 239/223/4
f 245/265/6 244/266/6 241/267/6 242/268/6
f 242/268/1 241/267/1 243/269/1 248/270/1
f 241/267/3 244/271/3 246/272/3 243/269/3
f 247/273/5 246/274/5 244/266/5 245/265/5
f 248/270/4 243/269/4 246/275/4 247/276/4
f 245/277/2 242/268/2 248/270/2 247/278/2
usemtl Материал.003
f 5/279/3 4/280/3 1/281/3 2/282/3
f 2/282/4 1/281/4 3/283/4 8/284/4
f 1/281/5 4/285/5 6/286/5 3/283/5
f 7/287/6 6/288/6 4/280/6 5/279/6
f 8/284/2 3/283/2 6/289/2 7/290/2
f 5/291/1 2/282/1 8/284/1 7/292/1
f 13/293/3 12/294/3 9/295/3 10/2/3
f 10/2/4 9/295/4 11/296/4 16/3/4
f 9/295/5 12/297/5 14/298/5 11/296/5
f 15/299/6 14/300/6 12/294/6 13/293/6
f 16/3/2 11/296/2 14/301/2 15/302/2
f 21/303/3 20/304/3 17/305/3 18/306/3
f 18/306/4 17/305/4 19/6/4 24/5/4
f 17/305/5 20/307/5 22/308/5 19/6/5
f 23/309/6 22/310/6 20/304/6 21/303/6
f 21/311/1 18/306/1 24/5/1 23/312/1
f 29/313/3 28/314/3 25/315/3 26/316/3
f 26/316/4 25/315/4 27/317/4 32/318/4
f 25/315/5 28/319/5 30/320/5 27/317/5
f 31/321/6 30/322/6 28/314/6 29/313/6
f 32/318/2 27/317/2 30/323/2 31/324/2
f 29/325/1 26/316/1 32/318/1 31/326/1
