# Blender v2.91.2 OBJ File: 'Carrot_lowpoly.blend'
# www.blender.org
mtllib Carrot_lowpoly.mtl
o Mesh1.0
v -0.324404 -0.478846 -0.207788
v -0.401585 -0.516407 -0.252351
v -0.428267 -0.503408 -0.235191
v -0.453183 -0.458034 -0.258733
v -0.401409 -0.513582 -0.221313
v -0.379962 -0.518910 -0.234891
v -0.373836 -0.496901 -0.185102
v -0.413125 -0.489313 -0.187807
v -0.352554 -0.506635 -0.221195
v -0.472019 -0.389692 -0.241682
v -0.439923 -0.462696 -0.180600
v -0.470065 -0.387656 -0.153949
v -0.485247 -0.348862 -0.187926
v -0.466746 -0.445102 -0.217882
v -0.402588 -0.449138 -0.137998
v -0.476409 -0.314028 -0.229330
v -0.429092 -0.417377 -0.126071
v -0.487922 -0.306928 -0.177292
v -0.297505 -0.417205 -0.156554
v -0.469824 -0.287353 -0.085332
v -0.489025 -0.249203 -0.126892
v -0.344897 -0.482169 -0.182064
v -0.422127 -0.313591 -0.042263
v -0.455793 -0.284179 -0.075295
v -0.445213 -0.287157 -0.049201
v -0.482946 -0.258272 -0.093297
v -0.282764 -0.403582 -0.166527
v -0.219284 -0.261436 -0.022675
v -0.398364 -0.310511 -0.025484
v -0.424470 -0.104147 0.096804
v -0.275316 -0.282078 -0.000806
v -0.491900 -0.233160 -0.143342
v -0.348475 -0.286103 0.007793
v -0.481928 -0.125432 -0.004155
v -0.202991 -0.262290 -0.048696
v -0.478818 0.038192 -0.108089
v -0.493370 0.017164 -0.069259
v -0.495129 0.003234 -0.013334
v -0.459489 -0.068515 0.074147
v -0.424346 -0.086741 0.106020
v -0.178906 -0.170092 0.024102
v -0.217075 -0.163334 0.065850
v -0.377837 -0.117091 0.119678
v -0.277089 -0.174386 0.083067
v -0.146428 -0.159509 -0.009711
v -0.123433 -0.049378 0.117181
v -0.165694 -0.039066 0.160234
v -0.065072 0.008899 0.095786
v -0.046284 0.021530 0.043686
v -0.282263 0.133582 0.311566
v -0.251364 0.007535 0.225024
v -0.230574 0.148341 0.319270
v -0.082943 0.005533 0.123765
v -0.199683 0.008883 0.215587
v -0.172469 0.124307 0.291483
v -0.102107 0.015145 0.154064
v -0.490567 0.036683 -0.063307
v -0.473742 0.048204 -0.106662
v -0.488789 0.135262 -0.000394
v -0.474789 0.148526 -0.062822
v -0.482413 0.110939 0.109917
v -0.470188 0.169141 -0.055574
v -0.371676 0.111061 0.260155
v -0.430717 0.115664 0.212813
v -0.488428 0.153152 0.056861
v -0.479916 0.193326 -0.010769
v -0.472251 0.156817 0.165470
v -0.474874 0.357595 0.015847
v -0.461242 0.141327 0.181014
v -0.487898 0.368972 0.064762
v -0.473728 0.277718 0.206281
v -0.489203 0.325155 0.138395
v -0.424940 0.138960 0.234758
v -0.446906 0.255559 0.256310
v -0.469592 0.289249 0.211820
v -0.450223 0.278393 0.259859
v -0.456883 0.381985 0.256173
v -0.484905 0.408439 0.138879
v -0.340687 0.144623 0.299181
v -0.413614 0.252947 0.281383
v -0.475423 0.398315 0.203687
v -0.474640 0.453381 0.109633
v -0.423035 -0.496440 -0.267627
v -0.424487 -0.470282 -0.283352
v -0.393104 -0.500135 -0.279602
v -0.380869 -0.513392 -0.262100
v -0.358484 -0.506519 -0.261825
v -0.369144 -0.467369 -0.290736
v -0.401506 -0.449477 -0.296936
v -0.324244 -0.479388 -0.242769
v -0.333904 -0.456318 -0.275618
v -0.448413 -0.398990 -0.278398
v -0.390658 -0.359167 -0.298995
v -0.437353 -0.352894 -0.283536
v -0.357206 -0.389972 -0.298860
v -0.463875 -0.283604 -0.241636
v -0.279413 -0.401314 -0.201570
v -0.279286 -0.384132 -0.231197
v -0.327241 -0.386810 -0.285626
v -0.481793 -0.272015 -0.211352
v -0.332183 -0.308419 -0.290089
v -0.446062 -0.154730 -0.226901
v -0.357241 -0.136933 -0.265525
v -0.254232 -0.191479 -0.254646
v -0.176381 -0.218259 -0.153575
v -0.416187 -0.153187 -0.248882
v -0.303371 -0.157845 -0.272552
v -0.178662 -0.244381 -0.094708
v -0.202052 -0.206583 -0.206416
v -0.360158 -0.013185 -0.241308
v -0.412743 -0.134018 -0.246649
v -0.242532 0.033036 -0.235187
v -0.306261 0.034580 -0.240039
v -0.446257 0.061031 -0.148831
v -0.209337 -0.076594 -0.221530
v -0.126993 -0.100789 -0.104678
v -0.161561 -0.098379 -0.165911
v -0.177941 -0.074097 -0.193160
v -0.098720 0.222449 -0.144344
v -0.116195 -0.115023 -0.047173
v -0.087710 0.095716 -0.126622
v -0.151354 0.238648 -0.173913
v -0.059802 -0.000442 -0.025865
v -0.066599 0.032166 -0.075017
v -0.038088 0.054537 -0.007245
v -0.075034 0.229828 -0.118628
v 0.004208 0.210358 0.014920
v -0.041570 0.208199 -0.080123
v -0.089656 0.304900 -0.131745
v -0.442242 0.169483 -0.112843
v -0.453620 0.170475 -0.084784
v -0.302102 0.267503 -0.183311
v -0.394655 0.197465 -0.153454
v -0.349605 0.260599 -0.169328
v -0.223281 0.299627 -0.182219
v -0.384743 0.346469 -0.112913
v -0.411134 0.343814 -0.080997
v -0.451959 0.322927 -0.037923
v -0.144921 0.315356 -0.162605
v -0.444124 0.408370 -0.019003
v -0.314327 0.367160 -0.150217
v -0.384553 0.475801 -0.053879
v -0.327878 0.368408 -0.130565
v -0.293321 0.390369 -0.147730
v -0.348731 0.381017 -0.127214
v -0.434285 0.461727 -0.000845
v -0.253251 0.384929 -0.156066
v -0.321211 0.446250 -0.114900
v -0.371137 0.500141 -0.049485
v -0.184583 0.440848 -0.134906
v -0.130248 0.420956 -0.127358
v -0.463932 0.457217 0.051697
v -0.059139 0.035014 0.117397
v -0.117054 0.146235 0.276675
v -0.003842 0.170495 0.153127
v -0.042062 0.158496 0.210585
v -0.082249 0.159852 0.260344
v -0.023113 0.170546 0.203993
v 0.020782 0.227164 0.175328
v -0.046584 0.213488 0.273076
v 0.001937 0.234254 0.228935
v -0.091319 0.255695 0.328860
v -0.038012 0.273054 0.294948
v 0.002092 0.324402 0.261341
v -0.392604 0.231789 0.304802
v -0.411893 0.257631 0.301321
v -0.346532 0.227217 0.332751
v -0.362004 0.294056 0.347110
v -0.418143 0.374065 0.310076
v -0.315031 0.254107 0.358379
v -0.265918 0.264735 0.374680
v -0.425132 0.423370 0.292754
v -0.316067 0.322723 0.373886
v -0.433226 0.464165 0.263775
v -0.377596 0.387430 0.346515
v -0.376648 0.403714 0.341218
v -0.377613 0.484907 0.317139
v -0.242420 0.351465 0.391990
v -0.308167 0.379567 0.382321
v -0.219398 0.273272 0.377985
v -0.336805 0.445779 0.359299
v -0.166739 0.316595 0.382739
v -0.264591 0.417257 0.388460
v -0.151566 0.251923 0.357739
v -0.316322 0.564325 0.289179
v -0.185000 0.403926 0.388935
v -0.085910 0.313453 0.346142
v -0.327725 0.499544 0.340743
v -0.282897 0.483154 0.363312
v -0.130099 0.356781 0.373950
v -0.218099 0.453195 0.382098
v -0.271770 0.530310 0.335423
v -0.050852 0.368574 0.327259
v -0.245082 0.563437 0.309132
v -0.256147 0.580573 0.286703
v -0.249645 0.599323 0.281257
v -0.284631 0.604735 0.232454
v -0.261761 0.611219 0.252497
v -0.119169 0.418678 0.365640
v -0.209369 0.506852 0.355286
v -0.226427 0.560119 0.314908
v -0.007039 0.369580 0.278431
v -0.253483 0.607166 0.262943
v 0.017235 0.392716 0.232809
v -0.169157 0.464684 0.370146
v -0.244272 0.590240 0.372951
v -0.099617 0.469691 0.340163
v -0.177153 0.542087 0.322656
v -0.227145 0.582638 0.351948
v -0.238715 0.572326 0.321445
v -0.058595 0.458263 0.313318
v -0.236940 0.652690 0.332063
v -0.184654 0.571191 0.294391
v -0.212939 0.569139 0.301733
v -0.216554 0.586595 0.294415
v -0.203170 0.596351 0.291284
v -0.017948 0.424253 0.281545
v -0.238260 0.595730 0.396792
v -0.257634 0.614718 0.324603
v -0.117711 0.520971 0.318720
v -0.218741 0.614576 0.344077
v -0.171796 0.604201 0.278134
v -0.000707 0.454459 0.238483
v -0.051462 0.505975 0.276952
v -0.149531 0.577067 0.274803
v -0.157406 0.597616 0.274099
v -0.169367 0.618709 0.257004
v -0.152218 0.673739 0.314273
v -0.221787 0.676238 0.275933
v -0.221196 0.658257 0.268427
v -0.128770 0.587299 0.243731
v -0.139740 0.609981 0.247996
v -0.213626 0.664897 0.254764
v -0.252496 0.590868 0.444744
v -0.226905 0.651793 0.415985
v -0.211652 0.667266 0.379064
v -0.130793 0.721529 0.295832
v -0.451264 0.485752 0.202258
v -0.453244 0.499685 0.123071
v -0.417008 0.545693 0.166333
v -0.393993 0.535491 0.252119
v -0.363184 0.571704 0.231886
v -0.315052 0.610337 0.192314
v -0.263134 0.621359 0.234011
v -0.282137 0.645127 0.388577
v -0.248384 0.681541 0.340483
v -0.235818 0.674213 0.285209
v -0.217145 0.673710 0.277060
v -0.248218 0.747360 0.298772
v -0.239090 0.721529 0.302307
v -0.287889 0.647114 0.460259
v -0.289933 0.629730 0.414874
v -0.284812 0.660336 0.437357
v -0.272101 0.658904 0.392601
v -0.223476 0.699953 0.296513
v -0.223773 0.685278 0.284894
v -0.219932 0.692179 0.281928
v -0.202879 0.687119 0.281475
v -0.225954 0.702947 0.292135
v -0.195954 0.713217 0.266735
v -0.246689 0.620649 0.515698
v -0.241394 0.599338 0.461317
v -0.237852 0.646173 0.414365
v -0.231426 0.635800 0.415330
v -0.196952 0.688376 0.355703
v -0.237818 0.624536 0.497484
v -0.247772 0.631582 0.519321
v -0.239664 0.648744 0.535615
v -0.206818 0.714849 0.424738
v -0.172646 0.697754 0.368948
v -0.183022 0.707585 0.372344
v -0.129473 0.798131 0.345751
v -0.128862 0.810803 0.371061
v -0.277912 0.633807 0.488589
v -0.275469 0.665305 0.433818
v -0.277137 0.677981 0.437530
v -0.245792 0.700624 0.389550
v -0.257014 0.733029 0.348288
v -0.223130 0.746050 0.307212
v -0.259860 0.634652 0.524412
v -0.278731 0.657417 0.458111
v -0.260448 0.723266 0.481537
v -0.216887 0.703934 0.472642
v -0.254160 0.734491 0.386086
v -0.202289 0.697654 0.347427
v -0.211706 0.754257 0.325179
v -0.198040 0.742969 0.326485
v -0.213898 0.789497 0.299345
v -0.237938 0.790892 0.276784
v -0.230563 0.788886 0.292456
v -0.245948 0.669948 0.565196
v -0.256876 0.680131 0.567881
v -0.223205 0.688533 0.523516
v -0.249865 0.714031 0.482046
v -0.207633 0.718701 0.480874
v -0.202745 0.708546 0.444000
v -0.239672 0.728438 0.448715
v -0.249410 0.743690 0.405477
v -0.271498 0.770939 0.414563
v -0.271712 0.796224 0.404211
v -0.209892 0.755312 0.407749
v -0.264812 0.814016 0.388223
v -0.194053 0.727644 0.356179
v -0.195800 0.759015 0.348887
v -0.189081 0.776725 0.340533
v -0.247380 0.852207 0.315953
v -0.234476 0.686361 0.562362
v -0.227957 0.673713 0.525947
v -0.231382 0.691097 0.547561
v -0.211947 0.720155 0.448692
v -0.233697 0.729705 0.460132
v -0.222848 0.727119 0.464804
v -0.203169 0.739685 0.416054
v -0.251077 0.750506 0.432383
v -0.216561 0.760854 0.413319
v -0.262525 0.781022 0.421636
v -0.275790 0.833671 0.431941
v -0.204039 0.758227 0.397002
v -0.169942 0.749096 0.382500
v -0.195721 0.758393 0.355051
v -0.197750 0.763723 0.367111
v -0.190379 0.764752 0.367561
v -0.196837 0.775111 0.368811
v -0.191771 0.775061 0.372970
v -0.220707 0.827159 0.367092
v -0.199787 0.774791 0.349215
v -0.198178 0.773085 0.367462
v -0.228678 0.847351 0.338488
v -0.243613 0.700078 0.573626
v -0.237702 0.715400 0.565070
v -0.251364 0.708780 0.568252
v -0.227584 0.703710 0.557338
v -0.246110 0.723768 0.544227
v -0.217413 0.713460 0.525339
v -0.227051 0.723688 0.543955
v -0.225569 0.736491 0.511007
v -0.240486 0.736633 0.507742
v -0.236442 0.729203 0.511443
v -0.219035 0.721470 0.501814
v -0.252695 0.776120 0.494590
v -0.250144 0.770442 0.467747
v -0.252189 0.796330 0.468105
v -0.261630 0.815146 0.478714
v -0.218300 0.778764 0.434884
v -0.202798 0.792545 0.425047
v -0.259947 0.828479 0.436778
v -0.264667 0.843627 0.418708
v -0.199002 0.793566 0.401333
v -0.152414 0.750172 0.377014
v -0.182304 0.752158 0.375475
v -0.199422 0.778322 0.388130
v -0.196599 0.788288 0.373534
v -0.193670 0.780700 0.387786
v -0.198936 0.798093 0.376828
v -0.192341 0.783264 0.367512
v -0.193276 0.813754 0.378172
v -0.180533 0.769948 0.317289
v -0.199274 0.815143 0.379649
v -0.205697 0.833934 0.373104
v -0.222468 0.888477 0.354843
v -0.239815 0.888010 0.341968
v -0.224967 0.766718 0.537965
v -0.240929 0.786295 0.536820
v -0.202921 0.784335 0.499039
v -0.246145 0.818046 0.511190
v -0.259388 0.844491 0.489879
v -0.250907 0.855088 0.440759
v -0.207309 0.816379 0.438783
v -0.197794 0.794163 0.422076
v -0.249769 0.866785 0.432190
v -0.198972 0.834949 0.408611
v -0.207492 0.895836 0.355127
v -0.134238 0.805028 0.345564
v -0.236353 0.912811 0.331514
v -0.214122 0.787089 0.556676
v -0.202386 0.758833 0.536826
v -0.188033 0.777232 0.542062
v -0.236163 0.791170 0.516831
v -0.194493 0.779192 0.479541
v -0.204865 0.825675 0.507498
v -0.203616 0.817006 0.470689
v -0.239849 0.878280 0.468636
v -0.227923 0.864501 0.424959
v -0.193480 0.846224 0.411015
v -0.198108 0.848922 0.413383
v -0.109045 0.853904 0.336403
v -0.118460 0.881815 0.337600
v -0.216190 0.925446 0.349335
v -0.202240 0.786253 0.536069
v -0.209102 0.803006 0.556493
v -0.207303 0.789542 0.538124
v -0.195217 0.798209 0.554208
v -0.239435 0.849531 0.528570
v -0.200479 0.810324 0.497345
v -0.251361 0.828101 0.489969
v -0.239964 0.882203 0.502753
v -0.175654 0.815510 0.498946
v -0.190988 0.799085 0.466329
v -0.215318 0.876237 0.438224
v -0.199650 0.894863 0.470532
v -0.163241 0.849937 0.469301
v -0.171897 0.849662 0.450373
v -0.202255 0.867984 0.423253
v -0.195723 0.866212 0.425759
v -0.139582 0.821734 0.384386
v -0.190872 0.917190 0.416826
v -0.136991 0.928801 0.415758
v -0.185070 0.923748 0.380171
v -0.204463 0.948959 0.337117
v -0.180960 0.945044 0.351827
v -0.183505 0.806499 0.548428
v -0.189375 0.827452 0.576105
v -0.220945 0.825556 0.561460
v -0.224597 0.848464 0.556818
v -0.230022 0.847719 0.537043
v -0.193018 0.836532 0.509531
v -0.179787 0.864375 0.533626
v -0.219098 0.902515 0.509192
v -0.161403 0.866389 0.460963
v -0.197965 0.919974 0.443368
v -0.148803 0.956238 0.454779
v -0.171715 0.868212 0.568493
v -0.199472 0.858333 0.581228
v -0.213730 0.883832 0.563275
v -0.168668 0.861625 0.525290
v -0.219640 0.895786 0.514842
v -0.186461 0.889313 0.502952
v -0.202739 0.899155 0.513123
v -0.193177 0.902026 0.502023
v -0.188444 0.898116 0.530812
v -0.154207 0.877149 0.495262
v -0.171219 0.896817 0.515565
v -0.145269 0.924143 0.448874
v -0.182537 0.980471 0.435952
v -0.177514 0.875581 0.580057
v -0.186787 0.889597 0.579478
v -0.177832 0.888658 0.570530
v -0.198716 0.905075 0.556776
v -0.167138 0.895593 0.537293
v -0.179568 0.892492 0.541383
v -0.193172 0.938426 0.506850
v -0.176781 0.925087 0.530120
v -0.154509 0.946035 0.529222
v -0.193518 0.954786 0.471522
v -0.177221 0.984697 0.475527
v -0.183358 0.900275 0.564990
v -0.177532 0.973830 0.527501
v -0.165335 1.013688 0.479614
v -0.159209 1.013906 0.433238
v -0.162769 0.964039 0.538183
v -0.143053 1.002566 0.530079
v -0.135549 1.017155 0.517775
v -0.175585 0.993770 0.503562
v -0.127477 1.034628 0.468509
v -0.138049 1.015875 0.403637
v -0.154269 1.012046 0.527177
v -0.134991 1.030574 0.507444
v -0.139421 1.036837 0.464395
v -0.141417 1.027322 0.516966
v -0.041767 0.040957 0.043718
v -0.037944 0.293818 -0.080630
v -0.018038 0.254948 -0.049069
v -0.012207 0.395658 -0.037372
v 0.014371 0.195747 0.077844
v 0.013722 0.226943 0.033566
v 0.018811 0.353297 0.011457
v 0.037453 0.255085 0.119476
v 0.037652 0.291280 0.071085
v 0.044351 0.333571 0.119450
v 0.035568 0.316964 0.183230
v 0.036270 0.392308 0.078004
v 0.031102 0.418093 0.179218
v 0.035165 0.422403 0.118917
v -0.329666 0.546653 -0.041435
v -0.323016 0.502499 -0.080209
v -0.072790 0.385949 -0.102830
v -0.262250 0.445719 -0.133419
v -0.235062 0.511236 -0.099388
v -0.279087 0.532020 -0.079262
v -0.194775 0.539315 -0.078394
v -0.160624 0.492662 -0.102105
v -0.314102 0.598077 0.019231
v -0.240284 0.560485 -0.060293
v -0.268872 0.591899 -0.017511
v -0.069744 0.435587 -0.083773
v -0.089829 0.494257 -0.068466
v -0.207326 0.598812 -0.015832
v -0.004159 0.451856 -0.001614
v -0.128608 0.549002 -0.048950
v -0.164175 0.560155 -0.049374
v -0.231523 0.622670 0.029921
v -0.117797 0.559651 -0.028634
v -0.150794 0.600119 0.007105
v -0.214230 0.635030 0.091347
v 0.018760 0.435583 0.043981
v -0.032748 0.468190 -0.031359
v -0.060474 0.536818 -0.003506
v -0.265730 0.626727 0.170363
v -0.278631 0.631903 0.097024
v -0.090249 0.579847 0.025751
v -0.221054 0.647430 0.175919
v -0.229154 0.637222 0.156464
v -0.218756 0.635134 0.139885
v -0.190784 0.634267 0.131327
v -0.048469 0.562059 0.062423
v -0.248898 0.639549 0.204597
v -0.170687 0.629732 0.137752
v 0.015194 0.480698 0.122269
v -0.139730 0.690012 0.108524
v -0.194548 0.704792 0.118580
v -0.154448 0.622528 0.070315
v -0.149604 0.691842 0.099868
v -0.021166 0.526505 0.061409
v -0.170919 0.637622 0.206088
v -0.178153 0.642651 0.168176
v -0.167295 0.640881 0.186395
v -0.168601 0.635111 0.156955
v -0.005664 0.509168 0.080324
v -0.085372 0.594211 0.089583
v -0.030458 0.553883 0.137353
v -0.121840 0.599737 0.210052
v -0.160232 0.623026 0.243071
v -0.012882 0.515311 0.200375
v -0.136424 0.622862 0.212499
v -0.156782 0.629150 0.225635
v -0.083480 0.581897 0.197583
v -0.105713 0.607043 0.144044
v -0.142734 0.622621 0.166556
v -0.119696 0.744946 0.118839
v -0.090663 0.743067 0.052654
v -0.105455 0.741463 0.049559
v -0.065776 0.555348 0.231970
v -0.153564 0.701694 0.227357
v -0.167385 0.676634 0.165788
v -0.126628 0.747021 0.126402
v -0.429251 0.513174 0.040882
v -0.372014 0.544830 -0.007025
v -0.385239 0.560656 0.038810
v -0.402340 0.560861 0.102958
v -0.343161 0.606708 0.124080
v -0.349569 0.597143 0.176446
v -0.347200 0.599182 0.071576
v -0.216851 0.782704 0.230688
v -0.192910 0.710802 0.182360
v -0.166884 0.779328 0.115084
v -0.164313 0.787588 0.092565
v -0.162457 0.752825 0.074374
v -0.234542 0.797372 0.248734
v -0.218293 0.725879 0.208069
v -0.194837 0.713599 0.158851
v -0.125143 0.776952 0.261726
v -0.107595 0.794861 0.180340
v -0.065570 0.832318 0.028166
v -0.147743 0.749869 0.244107
v -0.064402 0.802330 0.043833
v -0.095590 0.877850 0.294051
v -0.088337 0.915639 0.244030
v -0.049508 0.845667 0.042115
v -0.226152 0.835850 0.248160
v -0.159169 0.801600 0.169711
v -0.143057 0.794939 0.081764
v -0.107165 0.803043 0.040364
v -0.156348 0.818249 0.116645
v -0.072051 0.861524 0.030545
v -0.249248 0.875504 0.302162
v -0.237269 0.879838 0.273581
v -0.154183 0.769941 0.254040
v -0.204861 0.870869 0.227167
v -0.175893 0.852566 0.166906
v -0.103478 0.814592 0.167632
v -0.132037 0.855217 0.120025
v -0.153168 0.900103 0.158311
v -0.107988 0.854811 0.075776
v -0.189462 0.786648 0.276305
v -0.175521 0.791920 0.282699
v -0.126467 0.818966 0.265331
v -0.224017 0.884856 0.271572
v -0.137129 0.853976 0.266445
v -0.205839 0.880425 0.214895
v -0.193009 0.912845 0.195562
v -0.071608 0.864402 0.124484
v -0.114164 0.870130 0.118999
v -0.077810 0.894519 0.067456
v -0.061171 0.889700 0.042913
v -0.048678 0.881564 0.039498
v -0.173748 0.891929 0.313167
v -0.229651 0.921287 0.303061
v -0.124301 0.862353 0.262874
v -0.137573 0.843158 0.275064
v -0.198863 0.989802 0.275890
v -0.198059 0.933537 0.237098
v -0.194031 0.903139 0.212304
v -0.060261 0.913019 0.177858
v -0.169611 0.946447 0.180489
v -0.097974 0.847966 0.155228
v -0.071184 0.897451 0.160396
v -0.113268 0.851589 0.151953
v -0.078432 0.918207 0.154301
v -0.135148 0.940227 0.160993
v -0.081064 0.873929 0.125216
v -0.067493 0.899091 0.084541
v -0.050608 0.889800 0.077985
v -0.056069 0.897751 0.056046
v -0.176198 0.824728 0.321595
v -0.181367 0.861357 0.301219
v -0.161733 0.895766 0.321334
v -0.196224 0.902488 0.305989
v -0.196933 0.940593 0.322424
v -0.213421 0.909199 0.292629
v -0.216727 0.905819 0.274535
v -0.100083 0.879510 0.279562
v -0.108940 0.903730 0.277982
v -0.133396 0.894807 0.282053
v -0.146417 0.974216 0.194201
v -0.187755 0.903885 0.329627
v -0.175458 0.920454 0.322404
v -0.171166 0.906758 0.313887
v -0.121159 0.915722 0.279834
v -0.173369 1.001014 0.257569
v -0.119087 0.999882 0.184698
v -0.155591 0.964788 0.341134
v -0.173825 0.935076 0.342192
v -0.207518 0.962359 0.299883
v -0.127796 0.908430 0.282790
v -0.128794 0.916448 0.287531
v -0.095420 0.924255 0.299500
v -0.114222 1.006820 0.201370
v -0.056960 0.959243 0.181852
v -0.191422 0.994505 0.320141
v -0.178064 0.946238 0.337048
v -0.125298 0.948259 0.309334
v -0.107838 0.979281 0.299988
v -0.179043 1.010962 0.263773
v -0.084276 0.943424 0.239128
v -0.174362 1.002557 0.244691
v -0.118434 1.050646 0.240565
v -0.069188 0.994724 0.188082
v -0.081839 1.026063 0.203816
v -0.116267 0.952023 0.358930
v -0.104868 0.936549 0.351900
v -0.104475 0.959490 0.318921
v -0.120012 0.983573 0.301866
v -0.106264 1.024123 0.322495
v -0.165234 1.043026 0.302733
v -0.071048 0.993589 0.234947
v -0.073712 1.059309 0.280318
v -0.137330 1.021303 0.392763
v -0.144062 0.983927 0.342016
v -0.160991 1.002635 0.340424
v -0.128110 1.010672 0.371125
v -0.096172 1.085913 0.293913
v -0.124821 1.074031 0.292529
v -0.072015 1.022094 0.232710
v -0.057070 1.007827 0.230524
v -0.090880 1.068633 0.250933
v -0.065024 1.030204 0.222200
v -0.079132 1.028090 0.224530
v -0.118713 1.017308 0.390818
v -0.124812 1.002344 0.389369
v -0.130902 1.026180 0.338612
v -0.151385 1.042361 0.328397
v -0.083867 1.060158 0.301962
v -0.104094 1.080565 0.275479
v -0.076584 1.061835 0.254104
v -0.108543 1.063714 0.324595
v -0.107665 1.082386 0.308215
v -0.083961 1.080373 0.279857
v -0.090386 1.081807 0.304205
vn -0.8444 -0.5232 -0.1147
vn -0.1959 -0.8255 0.5294
vn 0.0267 -0.9155 0.4014
vn 0.2182 -0.9022 0.3720
vn -0.4752 -0.6280 0.6163
vn -0.8104 -0.4561 0.3678
vn -0.9588 -0.2344 0.1608
vn 0.3705 -0.8184 0.4392
vn -0.9766 -0.0078 -0.2150
vn -0.9578 -0.1756 0.2275
vn -0.3541 -0.5730 0.7391
vn 0.6414 -0.6362 0.4288
vn -0.9873 0.0194 -0.1578
vn -0.9922 -0.0920 0.0837
vn 0.8477 -0.5050 0.1625
vn -0.6988 -0.4204 0.5787
vn -0.7261 -0.3870 0.5683
vn -0.9836 0.0085 0.1803
vn -0.7476 -0.6222 0.2321
vn -0.6587 -0.7478 -0.0827
vn 0.6853 -0.7281 0.0184
vn -0.9799 0.0715 -0.1865
vn -0.4827 -0.8705 0.0964
vn -0.8131 -0.3254 0.4826
vn 0.4704 -0.6767 0.5664
vn 0.6925 -0.6377 0.3373
vn -0.4898 -0.4895 0.7215
vn 0.7831 -0.5945 0.1827
vn -0.9995 0.0032 -0.0306
vn -0.5736 -0.8003 0.1748
vn 0.4729 -0.5962 0.6488
vn -0.0752 -0.5769 0.8134
vn 0.3175 -0.6533 0.6873
vn -0.2700 -0.5183 0.8115
vn 0.4971 -0.6615 0.5616
vn 0.7202 -0.5833 0.3757
vn 0.8381 -0.5159 0.1772
vn 0.0364 -0.5596 0.8280
vn 0.5287 -0.5462 0.6498
vn 0.1538 -0.5652 0.8105
vn 0.3829 -0.5689 0.7279
vn 0.8434 -0.0119 0.5372
vn 0.8343 0.2169 0.5069
vn -0.7551 0.6414 0.1360
vn -0.8841 0.4600 -0.0822
vn -0.9988 0.0488 -0.0090
vn -0.9970 0.0533 -0.0553
vn -0.9801 -0.0879 0.1779
vn -0.8967 -0.1939 0.3979
vn -0.9941 -0.0061 0.1079
vn -0.5061 -0.4423 0.7405
vn -0.5944 -0.3898 0.7034
vn -0.9999 0.0030 -0.0159
vn -0.5592 -0.7540 0.3445
vn -0.4638 -0.4554 0.7599
vn -0.9871 0.0501 0.1522
vn -0.9986 0.0515 0.0129
vn -0.9696 -0.0338 0.2425
vn -0.6424 -0.7319 0.2274
vn -0.9451 -0.0262 0.3257
vn -0.4334 0.4401 0.7864
vn 0.6507 -0.7531 -0.0971
vn -0.1321 -0.8324 -0.5382
vn -0.2227 -0.3485 -0.9105
vn 0.0483 -0.9786 -0.2001
vn 0.2899 -0.9360 -0.1995
vn -0.8357 0.0409 -0.5477
vn 0.4670 -0.4395 -0.7673
vn 0.1212 -0.1221 -0.9851
vn -0.3789 -0.0122 -0.9254
vn -0.7835 0.0732 -0.6170
vn 0.4131 -0.1685 -0.8950
vn -0.0153 -0.0210 -0.9997
vn 0.8645 -0.5026 0.0118
vn 0.8182 -0.3289 -0.4716
vn 0.0798 0.0823 -0.9934
vn 0.8915 -0.3935 -0.2244
vn 0.4062 -0.0264 -0.9134
vn 0.6880 -0.1676 -0.7061
vn -0.3159 0.1946 -0.9286
vn -0.0670 0.1584 -0.9851
vn 0.7973 -0.2716 -0.5390
vn 0.4424 -0.0232 -0.8965
vn 0.8317 -0.2963 -0.4695
vn 0.9108 -0.3893 -0.1375
vn 0.6465 -0.3338 -0.6860
vn 0.4851 0.0504 -0.8730
vn 0.8601 -0.1381 -0.4910
vn 0.8122 -0.1553 -0.5624
vn 0.8843 -0.3866 -0.2617
vn 0.8031 -0.1914 -0.5642
vn 0.8993 -0.4357 -0.0371
vn 0.4981 0.0373 -0.8663
vn 0.9358 -0.3449 -0.0729
vn 0.9176 -0.2608 -0.2999
vn 0.9245 -0.2053 -0.3212
vn -0.9354 0.1334 -0.3276
vn -0.8244 0.4449 -0.3500
vn -0.3069 0.2530 -0.9175
vn -0.6572 0.6952 -0.2911
vn -0.5148 0.3135 -0.7979
vn -0.3076 0.2657 -0.9137
vn 0.2173 0.1245 -0.9681
vn -0.4191 0.8654 -0.2745
vn -0.3775 -0.4027 -0.8339
vn -0.6730 0.2765 -0.6861
vn -0.1747 0.2909 -0.9407
vn -0.2989 -0.2496 -0.9211
vn -0.8399 0.3072 -0.4475
vn -0.2356 -0.3407 -0.9102
vn -0.6991 0.4904 -0.5203
vn -0.1500 0.3256 -0.9335
vn -0.7036 0.4822 -0.5220
vn -0.5078 0.4403 -0.7404
vn 0.4980 0.0855 -0.8629
vn -0.8059 0.4185 -0.4188
vn 0.5291 -0.5467 0.6490
vn 0.4134 -0.5598 0.7181
vn 0.8939 -0.4117 0.1776
vn 0.3974 -0.4733 0.7862
vn 0.4833 -0.4667 0.7407
vn 0.7743 -0.2153 0.5951
vn 0.9042 -0.1459 0.4014
vn 0.9172 -0.0376 0.3967
vn -0.5017 -0.8315 0.2387
vn -0.3739 -0.3718 0.8497
vn -0.5216 -0.2929 0.8013
vn -0.7533 -0.0894 0.6516
vn -0.8019 0.0936 0.5901
vn -0.8956 0.2222 0.3855
vn -0.4463 -0.2855 0.8481
vn -0.2651 -0.2164 0.9396
vn -0.3922 -0.2084 0.8960
vn 0.0140 -0.4263 0.9045
vn 0.2105 -0.4774 0.8531
vn -0.4681 -0.0726 0.8807
vn -0.6474 0.2096 0.7327
vn -0.6958 0.4713 0.5420
vn -0.2019 -0.1388 0.9695
vn -0.4890 0.0902 0.8676
vn -0.5885 0.2234 0.7770
vn -0.4831 0.3574 0.7993
vn -0.4795 0.5966 0.6435
vn 0.0032 0.0546 0.9985
vn 0.4011 -0.1688 0.9004
vn -0.1221 0.3241 0.9381
vn -0.2161 0.5343 0.8172
vn 0.1742 0.2492 0.9527
vn 0.5045 0.0268 0.8630
vn -0.0750 0.5207 0.8505
vn -0.1730 0.7396 0.6504
vn 0.1056 0.6220 0.7759
vn -0.1082 0.6700 0.7344
vn 0.3588 0.3034 0.8828
vn 0.2455 0.5220 0.8169
vn 0.2423 0.5307 0.8122
vn 0.7387 0.1095 0.6651
vn 0.1622 0.7290 0.6651
vn 0.1289 0.7078 0.6946
vn 0.2506 0.7069 0.6614
vn 0.6908 0.1689 0.7030
vn 0.7382 0.3356 0.5851
vn 0.5431 0.4798 0.6891
vn 0.2880 0.6863 0.6679
vn 0.7634 0.3438 0.5468
vn 0.4622 0.6942 0.5518
vn 0.4589 0.7062 0.5392
vn -0.7728 0.6341 -0.0271
vn -0.7742 0.4911 0.3993
vn -0.5010 0.7059 0.5007
vn -0.4518 0.8477 0.2780
vn -0.3529 0.8470 0.3977
vn -0.1904 0.9422 0.2758
vn 0.9513 -0.2288 -0.2068
vn 0.8934 -0.1394 -0.4271
vn 0.7412 -0.0454 -0.6697
vn 0.9414 -0.3366 -0.0217
vn 0.7444 -0.0355 -0.6668
vn 0.7043 0.0132 -0.7097
vn 0.9264 0.3711 -0.0634
vn 0.8233 -0.0382 -0.5663
vn 0.9528 -0.2415 -0.1841
vn 0.9516 -0.2480 -0.1816
vn 0.9621 0.0317 -0.2710
vn 0.9876 0.0495 0.1489
vn -0.5290 0.5790 -0.6204
vn -0.3127 0.4913 -0.8129
vn 0.0040 0.3496 -0.9369
vn 0.1833 0.2668 -0.9462
vn -0.3739 0.5796 -0.7241
vn -0.1507 0.5042 -0.8503
vn 0.2316 0.2789 -0.9320
vn 0.4908 0.2137 -0.8447
vn -0.4457 0.7360 -0.5095
vn 0.7102 0.1008 -0.6967
vn 0.7216 0.1081 -0.6839
vn 0.0970 0.5030 -0.8588
vn 0.2742 0.4207 -0.8648
vn 0.3760 0.4454 -0.8125
vn -0.2113 0.8875 -0.4094
vn 0.3551 0.5268 -0.7723
vn 0.2583 0.5813 -0.7716
vn -0.0836 0.8648 -0.4952
vn 0.1357 0.7314 -0.6683
vn 0.7638 0.2651 -0.5885
vn 0.6204 0.3899 -0.6805
vn 0.4083 0.0208 -0.9126
vn -0.0635 0.9817 -0.1797
vn 0.9037 0.1578 -0.3979
vn 0.8881 0.1493 -0.4346
vn 0.5022 0.6962 -0.5129
vn -0.1182 0.9888 0.0906
vn 0.7480 0.4857 -0.4522
vn 0.0312 0.9995 0.0008
vn 0.9936 0.1025 -0.0485
vn 0.8607 0.4245 -0.2811
vn 0.7860 0.5133 -0.3446
vn 0.6224 0.6864 -0.3761
vn 0.9603 0.0533 0.2737
vn 0.9919 0.1030 0.0742
vn 0.3364 0.9369 -0.0952
vn 0.7994 0.5897 -0.1148
vn 0.7855 0.6067 -0.1226
vn 0.5414 0.8104 -0.2237
vn 0.7367 0.5758 -0.3546
vn 0.8421 0.5366 -0.0546
vn 0.6274 0.7759 -0.0661
vn 0.5782 0.8155 0.0238
vn 0.3947 0.9163 -0.0685
vn 0.4742 0.7980 0.3720
vn 0.8982 0.3479 0.2686
vn 0.6730 0.6995 0.2404
vn 0.4860 0.8477 0.2126
vn 0.9119 0.3777 0.1604
vn 0.8530 0.5160 0.0779
vn 0.6938 0.5845 0.4208
vn -0.7235 0.6622 -0.1950
vn -0.6215 0.7822 0.0434
vn -0.3452 0.9080 -0.2374
vn -0.4010 0.9086 0.1169
vn -0.3308 0.9398 0.0863
vn -0.2670 0.9569 0.1145
vn 0.6990 -0.7150 0.0143
vn -0.3913 -0.9163 0.0856
vn -0.7891 -0.5620 -0.2480
vn -0.5906 -0.7022 0.3976
vn -0.4953 -0.7766 0.3893
vn -0.7636 -0.5850 0.2733
vn -0.1860 -0.9784 0.0901
vn -0.9473 -0.1983 -0.2517
vn 0.4352 -0.8979 -0.0661
vn -0.9805 -0.1485 -0.1285
vn -0.4678 -0.6369 0.6127
vn -0.7037 -0.4714 0.5316
vn -0.1879 -0.7447 0.6404
vn 0.5659 -0.7443 0.3547
vn -0.9742 -0.0198 -0.2247
vn -0.9275 0.2834 -0.2439
vn -0.8718 -0.2550 -0.4182
vn -0.9456 -0.1822 0.2696
vn -0.9941 -0.0816 0.0717
vn 0.0721 -0.6780 0.7315
vn -0.4273 -0.5619 0.7083
vn -0.5856 0.4441 0.6782
vn -0.2089 -0.6124 0.7624
vn -0.5812 0.2264 0.7816
vn -0.5987 0.1736 0.7820
vn 0.1225 -0.6780 0.7248
vn 0.2852 -0.6961 0.6589
vn -0.9873 -0.0867 0.1331
vn -0.8360 -0.3014 0.4586
vn 0.7459 -0.6081 0.2718
vn -0.9851 -0.0906 0.1463
vn -0.5738 -0.4700 0.6707
vn 0.6100 -0.6815 0.4043
vn -0.2489 -0.5643 0.7871
vn -0.7390 -0.3670 0.5650
vn -0.9473 0.0858 -0.3086
vn 0.1256 -0.6083 0.7837
vn -0.1514 -0.5638 0.8119
vn -0.3892 0.1906 0.9012
vn 0.3216 -0.5785 0.7496
vn 0.5643 -0.5601 0.6066
vn 0.7025 -0.5449 0.4578
vn 0.1641 -0.6212 0.7663
vn 0.6499 -0.6283 0.4276
vn 0.6796 -0.5557 0.4789
vn 0.8701 -0.4722 0.1415
vn 0.8156 -0.5336 0.2236
vn 0.2747 -0.6369 0.7204
vn 0.4587 -0.6499 0.6060
vn 0.1564 -0.6213 0.7678
vn 0.7184 -0.5764 0.3895
vn 0.1621 -0.5685 0.8065
vn 0.6292 -0.5319 0.5667
vn 0.4417 -0.8966 0.0318
vn -0.7291 -0.5361 -0.4254
vn -0.9166 -0.1875 0.3531
vn -0.9723 0.1380 -0.1887
vn -0.7954 -0.2803 0.5373
vn -0.7224 -0.3403 0.6019
vn -0.7285 0.6848 -0.0179
vn -0.8146 -0.3298 -0.4771
vn -0.9888 0.1442 -0.0388
vn -0.9598 0.0998 -0.2623
vn -0.8908 -0.2568 0.3750
vn -0.9960 -0.0421 0.0794
vn -0.9926 0.0069 -0.1209
vn -0.9593 0.0736 -0.2726
vn -0.8289 -0.0285 0.5586
vn -0.9812 -0.0557 0.1848
vn -0.5956 0.2410 0.7663
vn -0.8285 -0.2488 0.5016
vn -0.9613 -0.0986 0.2573
vn -0.8975 -0.1508 0.4144
vn -0.5497 -0.3658 0.7510
vn -0.9272 0.1730 0.3322
vn -0.9318 0.2091 -0.2967
vn -0.7038 -0.2551 0.6630
vn -0.8654 0.0722 0.4959
vn -0.9809 0.1855 -0.0592
vn -0.9582 0.2363 -0.1614
vn -0.4615 0.5780 0.6730
vn -0.5923 -0.8037 0.0572
vn -0.9301 -0.0468 0.3644
vn -0.5473 -0.3742 0.7486
vn -0.5585 0.3009 0.7730
vn -0.5526 -0.7921 -0.2593
vn -0.3176 -0.7674 -0.5570
vn -0.3750 -0.4928 -0.7852
vn -0.6890 -0.4011 -0.6036
vn -0.8484 -0.1043 -0.5190
vn 0.2222 -0.6962 -0.6826
vn 0.3186 -0.5054 -0.8019
vn -0.4466 -0.0880 -0.8904
vn -0.6837 -0.1803 -0.7072
vn 0.0025 -0.3234 -0.9463
vn -0.7658 0.1132 -0.6330
vn -0.3123 0.0159 -0.9498
vn 0.6861 -0.4849 -0.5423
vn 0.4311 -0.1597 -0.8881
vn -0.6748 0.1752 -0.7169
vn -0.5875 0.1984 -0.7845
vn -0.8163 0.1757 -0.5502
vn 0.8272 -0.5602 0.0428
vn -0.2864 0.1847 -0.9401
vn 0.0610 0.1040 -0.9927
vn 0.8711 -0.4264 -0.2436
vn -0.3193 -0.3325 -0.8874
vn 0.3652 0.0384 -0.9301
vn -0.8303 0.1832 -0.5263
vn 0.6535 -0.1259 -0.7464
vn -0.3489 0.8402 -0.4152
vn -0.3087 0.1757 -0.9348
vn 0.8773 -0.4503 -0.1658
vn 0.3780 0.0604 -0.9239
vn -0.0642 0.1653 -0.9841
vn -0.1427 0.1868 -0.9720
vn -0.8166 0.1957 -0.5429
vn 0.6704 -0.0485 -0.7405
vn 0.7514 -0.0345 -0.6590
vn 0.8701 -0.1739 -0.4611
vn 0.0789 0.1672 -0.9828
vn 0.9260 -0.2873 -0.2450
vn 0.6719 -0.0579 -0.7384
vn 0.8336 -0.2713 -0.4813
vn 0.7709 -0.1690 -0.6141
vn 0.8830 -0.3256 -0.3381
vn 0.6512 -0.0493 -0.7573
vn 0.8588 -0.5033 0.0955
vn 0.9740 -0.2265 0.0099
vn 0.5316 0.5470 -0.6466
vn 0.9338 -0.2176 0.2840
vn 0.8474 -0.1354 -0.5134
vn 0.7435 -0.0288 -0.6681
vn 0.5843 -0.0279 -0.8111
vn -0.8012 0.4606 -0.3821
vn -0.8574 0.1985 -0.4747
vn -0.8478 0.1951 -0.4932
vn -0.5969 0.2725 -0.7546
vn -0.6026 0.2452 -0.7595
vn -0.7082 0.2417 -0.6633
vn -0.4686 0.2415 -0.8498
vn -0.1864 0.2356 -0.9538
vn -0.6102 0.2461 -0.7530
vn 0.0791 0.1888 -0.9788
vn -0.9664 0.0698 -0.2475
vn -0.8620 0.1575 -0.4818
vn -0.7806 0.1914 -0.5950
vn -0.6097 0.2456 -0.7536
vn -0.7598 0.2173 -0.6128
vn -0.0833 0.2372 -0.9679
vn 0.2547 0.1707 -0.9518
vn -0.7595 0.2286 -0.6090
vn -0.8551 0.1856 -0.4841
vn -0.7582 0.2065 -0.6185
vn -0.6989 0.2763 -0.6596
vn -0.4297 0.8328 -0.3491
vn -0.8760 0.2456 -0.4151
vn -0.2926 0.9202 -0.2602
vn -0.0934 0.2617 -0.9606
vn -0.7298 0.3370 -0.5949
vn -0.5478 0.3725 -0.7491
vn -0.3761 0.3226 -0.8686
vn -0.2738 0.3819 -0.8827
vn -0.5209 -0.1958 -0.8309
vn -0.4618 0.8632 -0.2039
vn 0.0432 0.3067 -0.9508
vn 0.6176 -0.4985 0.6083
vn 0.6847 -0.4970 0.5331
vn 0.7886 -0.4362 0.4335
vn 0.4948 -0.7606 0.4204
vn 0.5829 -0.6494 0.4885
vn 0.6268 -0.5482 0.5537
vn 0.5767 -0.7870 0.2193
vn 0.4054 -0.4693 0.7845
vn 0.5207 -0.5090 0.6854
vn 0.6934 -0.4822 0.5354
vn 0.8180 -0.4579 0.3481
vn 0.8209 -0.4787 0.3115
vn 0.5813 -0.3529 0.7332
vn 0.7086 -0.3308 0.6233
vn 0.9199 -0.1820 0.3474
vn 0.8827 0.0006 0.4700
vn -0.2627 -0.4106 0.8732
vn -0.5104 -0.3545 0.7834
vn -0.2086 -0.4029 0.8912
vn -0.8138 -0.0317 0.5802
vn -0.0109 -0.4325 0.9016
vn -0.6319 -0.1006 0.7685
vn -0.6487 -0.0916 0.7555
vn -0.8390 0.1945 0.5082
vn -0.6879 0.1518 0.7097
vn -0.6217 0.2748 0.7334
vn -0.7162 0.3041 0.6282
vn 0.1307 -0.4312 0.8927
vn -0.4633 -0.0667 0.8837
vn -0.0356 -0.1863 0.9818
vn -0.1582 -0.1234 0.9797
vn -0.4093 0.3037 0.8604
vn 0.1778 -0.3183 0.9312
vn -0.3001 0.1949 0.9338
vn -0.5142 0.6093 0.6036
vn 0.0453 -0.1632 0.9856
vn -0.1435 0.0047 0.9896
vn -0.2625 0.2795 0.9235
vn -0.3128 0.3566 0.8803
vn 0.0985 -0.0499 0.9939
vn 0.3912 -0.2505 0.8855
vn 0.4279 -0.2956 0.8541
vn 0.2502 -0.0164 0.9681
vn 0.0192 0.1501 0.9885
vn 0.5787 -0.2830 0.7648
vn -0.2760 0.6279 0.7277
vn -0.2089 0.8479 0.4873
vn 0.3186 0.0706 0.9452
vn -0.0488 0.4528 0.8903
vn 0.5108 -0.0305 0.8592
vn 0.6534 -0.1623 0.7394
vn -0.0304 0.5976 0.8012
vn 0.7290 -0.1294 0.6722
vn -0.1850 0.6980 0.6917
vn 0.2825 0.2154 0.9348
vn 0.1182 0.4284 0.8958
vn 0.7415 -0.1010 0.6633
vn 0.5774 0.1768 0.7971
vn 0.3234 0.4599 0.8270
vn 0.5727 0.1740 0.8011
vn 0.8434 0.1387 0.5191
vn 0.8516 0.2030 0.4834
vn 0.5743 0.4402 0.6902
vn 0.5028 0.6573 0.5614
vn 0.7812 0.4361 0.4467
vn -0.9474 0.2647 0.1800
vn -0.9440 0.3020 0.1327
vn -0.9138 0.3954 0.0924
vn -0.9002 0.2545 0.3533
vn -0.8306 0.5445 0.1166
vn -0.7553 0.5956 0.2735
vn -0.6586 0.7059 0.2606
vn -0.6131 0.7643 0.2001
vn -0.6116 0.7881 0.0691
vn -0.3665 0.8423 0.3953
vn 0.9274 -0.3593 0.1039
vn 0.8899 -0.1657 -0.4249
vn 0.6261 -0.6330 -0.4552
vn 0.9031 -0.4225 0.0768
vn 0.9159 -0.1047 -0.3875
vn 0.9110 -0.1064 -0.3985
vn 0.8505 0.0085 -0.5259
vn 0.9120 -0.4041 0.0702
vn 0.8476 0.0090 -0.5306
vn 0.9943 -0.0874 -0.0613
vn 0.9639 -0.1763 0.1996
vn 0.9897 -0.0869 0.1136
vn 0.9871 0.0243 -0.1580
vn -0.4713 0.5408 -0.6967
vn -0.2595 0.4765 -0.8400
vn 0.5060 0.1945 -0.8403
vn 0.0116 0.4571 -0.8893
vn -0.2763 0.7124 -0.6451
vn 0.0898 0.5027 -0.8598
vn -0.3461 0.7576 -0.5534
vn -0.2032 0.7195 -0.6641
vn -0.0681 0.6159 -0.7849
vn -0.0235 0.6200 -0.7842
vn 0.5159 0.2793 -0.8099
vn 0.4817 0.3719 -0.7935
vn 0.0690 0.7298 -0.6802
vn -0.0708 0.7809 -0.6207
vn 0.6999 0.2182 -0.6801
vn 0.7081 0.2551 -0.6585
vn 0.2182 0.6690 -0.7105
vn 0.2247 0.7695 -0.5978
vn 0.2957 0.9357 -0.1925
vn 0.2756 0.7527 -0.5979
vn 0.5188 0.5885 -0.6200
vn 0.9385 0.1274 -0.3209
vn 0.1406 0.9064 -0.3983
vn 0.6210 0.4969 -0.6062
vn 0.4089 0.7683 -0.4924
vn -0.0491 0.9988 -0.0067
vn 0.1216 0.9659 -0.2286
vn 0.1697 0.9319 -0.3206
vn 0.2585 0.9568 -0.1333
vn 0.1839 0.9811 -0.0605
vn 0.9525 0.2570 -0.1633
vn 0.9332 0.3281 -0.1466
vn 0.9022 0.3902 -0.1838
vn 0.4233 0.8764 -0.2296
vn 0.3828 0.8775 -0.2890
vn 0.8469 0.2393 -0.4748
vn 0.3314 0.9433 -0.0210
vn 0.9092 0.2325 0.3453
vn 0.9440 0.3184 0.0864
vn 0.4894 0.7805 0.3889
vn 0.6457 0.7282 0.2298
vn 0.4675 0.8589 0.2093
vn 0.5796 0.8033 0.1366
vn -0.8843 0.4474 -0.1338
vn -0.8522 0.4958 -0.1674
vn -0.6787 0.6114 -0.4069
vn -0.7827 0.6090 -0.1285
vn -0.6256 0.7616 -0.1692
vn -0.5094 0.7911 -0.3388
vn -0.5105 0.7566 -0.4085
vn -0.5955 0.8004 -0.0689
vn -0.2376 0.9257 -0.2942
vn -0.3980 0.9119 -0.1001
vn -0.8680 0.1570 -0.4711
vn -0.5987 0.5662 0.5665
vn -0.6734 0.3299 0.6616
vn -0.5724 0.7003 0.4266
vn -0.6097 0.7714 0.1820
vn -0.8018 0.5010 -0.3257
vn -0.7199 -0.6788 -0.1447
vn -0.0189 -0.9450 0.3266
vn 0.7361 -0.5720 0.3620
vn -0.7126 0.4875 -0.5046
vn 0.2005 0.4138 0.8880
vn 0.9821 0.1792 -0.0577
vn 0.5159 -0.8540 0.0666
vn -0.1185 -0.9607 0.2511
vn 0.5150 -0.7800 0.3554
vn 0.8966 -0.3025 0.3235
vn 0.5975 -0.6871 0.4134
vn 0.7623 0.2570 0.5940
vn 0.3607 0.7670 0.5307
vn -0.7694 -0.6185 0.1597
vn 0.5337 -0.8425 0.0730
vn 0.9793 -0.1940 0.0584
vn 0.8503 0.5263 -0.0054
vn 0.3501 -0.8151 0.4616
vn -0.7988 0.5796 -0.1608
vn -0.9427 -0.0769 -0.3245
vn -0.6574 0.6086 -0.4443
vn -0.9807 0.1677 -0.1004
vn -0.9827 0.1836 -0.0261
vn -0.9570 0.2577 -0.1328
vn -0.7523 0.6161 -0.2334
vn -0.5127 0.8411 -0.1725
vn -0.9917 -0.1118 -0.0637
vn -0.7062 0.3837 -0.5950
vn -0.5073 0.5387 -0.6727
vn 0.4971 0.6635 -0.5592
vn 0.8677 -0.3192 0.3810
vn 0.8292 0.5512 -0.0923
vn -0.2930 -0.3428 0.8925
vn -0.8154 0.1448 0.5605
vn 0.2661 -0.3113 0.9123
vn 0.1424 -0.9168 0.3731
vn 0.7776 0.6086 0.1581
vn 0.9287 -0.2395 0.2833
vn 0.9683 -0.2436 -0.0559
vn 0.9773 -0.1978 0.0754
vn -0.5867 -0.7468 0.3132
vn -0.7204 0.4394 -0.5366
vn 0.8506 -0.2506 0.4622
vn 0.8735 -0.2571 0.4135
vn 0.7907 -0.2210 0.5710
vn -0.8318 -0.3540 0.4275
vn -0.9000 0.4354 0.0206
vn 0.2828 -0.7302 0.6220
vn 0.8737 -0.4558 0.1699
vn -0.6106 -0.6471 0.4565
vn -0.8043 -0.4360 0.4038
vn -0.8112 0.0529 0.5823
vn 0.4951 0.5188 -0.6970
vn 0.6851 -0.0137 0.7283
vn -0.3744 0.2930 0.8797
vn 0.4933 -0.8312 0.2564
vn 0.9366 -0.3503 0.0103
vn 0.5923 -0.6423 0.4864
vn -0.6229 0.7308 -0.2791
vn -0.2262 0.9740 0.0103
vn 0.8431 -0.4793 0.2438
vn -0.9234 -0.3016 0.2373
vn 0.9803 0.0756 -0.1825
vn -0.1894 -0.4453 0.8751
vn -0.9196 -0.1555 -0.3608
vn 0.9159 0.3475 -0.2011
vn 0.9814 -0.0839 0.1724
vn 0.9347 0.3082 -0.1768
vn -0.9421 0.0709 -0.3277
vn -0.8845 0.0597 0.4627
vn 0.8089 -0.3582 0.4663
vn 0.9332 0.2414 -0.2662
vn -0.9457 0.3015 -0.1214
vn -0.8160 0.4004 -0.4168
vn -0.6701 0.7385 -0.0752
vn -0.8429 -0.2123 0.4944
vn -0.5084 -0.5460 0.6658
vn -0.3675 0.9114 -0.1850
vn 0.7667 0.6377 -0.0740
vn -0.9278 -0.3729 -0.0093
vn -0.8368 -0.4368 0.3300
vn -0.3899 -0.2705 0.8802
vn 0.0708 -0.2580 0.9635
vn -0.5032 -0.0525 0.8626
vn 0.3030 -0.2581 0.9174
vn 0.9884 0.0588 0.1404
vn -0.0401 -0.1443 0.9887
vn 0.9948 0.0608 -0.0820
vn 0.4376 0.4390 -0.7847
vn 0.1142 0.5057 -0.8551
vn -0.9925 0.0515 -0.1111
vn -0.0135 -0.2685 0.9632
vn 0.5679 -0.2623 0.7801
vn -0.0401 0.4989 0.8657
vn 0.8049 -0.4955 0.3266
vn 0.8891 0.3481 0.2972
vn 0.6922 0.1294 0.7100
vn -0.2994 0.8376 0.4570
vn 0.9445 -0.2362 0.2283
vn 0.8279 0.5459 0.1287
vn 0.3020 -0.3986 0.8660
vn 0.0065 0.9862 0.1654
vn 0.9886 0.1497 -0.0172
vn 0.0397 0.9896 -0.1383
vn 0.2982 0.9387 -0.1728
vn -0.2737 -0.8492 0.4517
vn -0.9808 -0.0800 0.1779
vn 0.3232 -0.4487 0.8332
vn 0.4813 0.6930 -0.5368
vn -0.3602 -0.2658 0.8942
vn 0.9507 -0.0870 0.2977
vn 0.8617 -0.3394 0.3773
vn -0.8959 -0.4396 0.0648
vn 0.9763 -0.1564 0.1495
vn -0.8268 0.4055 -0.3899
vn -0.6148 -0.2562 0.7459
vn 0.9872 -0.0693 0.1436
vn -0.9248 -0.3795 0.0259
vn -0.9923 0.0125 -0.1229
vn -0.4997 0.2905 -0.8160
vn 0.9777 0.1550 -0.1418
vn 0.9300 0.2137 -0.2990
vn -0.7698 -0.2607 0.5827
vn -0.5768 -0.2252 0.7853
vn -0.9770 0.0613 0.2043
vn -0.9657 0.0954 -0.2414
vn 0.7839 0.3310 0.5253
vn -0.6839 0.7294 0.0148
vn 0.9933 -0.0506 -0.1042
vn -0.1911 -0.5531 0.8109
vn -0.0166 0.9650 -0.2617
vn 0.9266 0.2490 -0.2816
vn 0.3954 0.8428 -0.3651
vn 0.5586 -0.3322 0.7600
vn -0.8368 -0.5149 0.1860
vn -0.3036 -0.0393 0.9520
vn -0.6360 0.4953 0.5917
vn -0.4217 -0.8214 0.3840
vn 0.9825 0.0028 -0.1862
vn -0.1481 0.8229 -0.5486
vn -0.9471 0.1314 -0.2928
vn 0.9477 0.2588 -0.1869
vn 0.8896 0.3472 -0.2968
vn 0.8027 -0.2432 0.5445
vn 0.7445 -0.6374 0.1989
vn -0.8581 -0.2215 0.4633
vn -0.7856 0.5898 -0.1871
vn -0.6261 -0.5152 0.5854
vn 0.9864 -0.1011 -0.1293
vn -0.8807 0.4709 -0.0505
vn -0.3916 0.8414 -0.3724
vn 0.1309 0.1171 0.9845
vn 0.2605 0.0465 0.9644
vn -0.7338 0.3483 0.5833
vn -0.7155 0.5681 0.4066
vn -0.5857 0.2159 0.7813
vn -0.1647 0.1726 0.9711
vn 0.2921 -0.4656 0.8354
vn 0.6039 0.7307 0.3185
vn -0.1831 -0.8014 0.5694
vn 0.6365 -0.7339 0.2373
vn -0.8898 -0.0500 0.4535
vn 0.5448 0.8380 -0.0300
vn 0.9408 -0.1093 -0.3208
vn -0.5336 -0.6882 0.4916
vn -0.3224 -0.1528 0.9342
vn -0.6025 -0.5623 0.5664
vn 0.3321 0.9181 -0.2163
vn 0.6793 0.7318 -0.0538
vn -0.9630 0.0570 -0.2633
vn 0.6470 -0.5356 0.5427
vn -0.9253 0.2911 0.2429
vn -0.8830 0.2822 0.3751
vn -0.6762 -0.2083 0.7067
vn 0.6440 -0.7395 0.1960
vn -0.2188 -0.5770 0.7869
vn -0.6653 0.5107 0.5446
vn -0.3508 0.8719 -0.3415
vn -0.3361 0.8772 -0.3427
vn 0.9138 -0.1789 0.3647
vn 0.9349 -0.1592 0.3173
vn -0.3912 -0.2737 0.8787
vn 0.7968 -0.2418 0.5537
vn -0.7029 0.0319 0.7106
vn -0.7726 0.6060 0.1891
vn 0.4396 -0.4948 0.7496
vn -0.0509 0.6446 0.7629
vn 0.1110 0.9348 0.3373
vn 0.6458 0.3892 0.6569
vn 0.8691 -0.4606 0.1804
vn -0.9779 -0.0273 0.2072
vn -0.9928 0.1124 0.0423
vn -0.9950 0.0867 0.0499
vn -0.8998 0.3381 -0.2759
vn -0.5115 0.5607 0.6511
vn 0.3500 0.9302 -0.1108
vn 0.9193 -0.1673 0.3562
vn 0.1067 0.9936 0.0359
vn 0.7039 0.7043 -0.0925
vn -0.7941 0.4822 -0.3699
vn -0.9881 0.0930 0.1228
vn 0.9202 0.2448 0.3055
vn -0.0587 0.8102 0.5833
vn 0.3770 -0.3643 0.8516
vn 0.9584 -0.2278 0.1723
vn -0.8195 0.5632 -0.1056
vn -0.4883 0.8215 -0.2944
vn 0.2321 0.8640 0.4467
vn -0.8010 0.4905 0.3434
vn -0.8509 0.2868 0.4402
vn 0.9201 0.1666 -0.3546
vn 0.2745 0.9109 -0.3081
vn 0.5331 0.3683 0.7617
vn 0.1372 0.9821 0.1288
vn -0.7141 0.3771 -0.5898
vn -0.9015 0.3999 0.1655
vn 0.8763 0.3646 0.3149
vn 0.4325 0.8205 0.3738
vn 0.4706 0.8144 0.3395
vn 0.3878 0.9065 0.1671
vn 0.7922 -0.0207 -0.6099
vn 0.8343 0.5386 -0.1174
vn 0.5522 0.8299 -0.0802
vn -0.4495 -0.4235 -0.7865
vn -0.4312 -0.4239 -0.7965
vn 0.2078 -0.7814 -0.5884
vn 0.9148 -0.3465 0.2078
vn 0.6896 -0.2659 -0.6736
vn -0.6742 0.7365 0.0556
vn -0.6130 0.2475 -0.7503
vn -0.9121 0.4088 0.0315
vn -0.9424 0.2634 -0.2063
vn -0.9370 0.3487 0.0209
vn -0.8794 0.1830 -0.4395
vn 0.9440 -0.3216 0.0738
vn 0.3769 0.2632 -0.8881
vn 0.7968 -0.3289 -0.5068
vn 0.2270 -0.3165 -0.9210
vn 0.7485 0.1291 0.6505
vn 0.8628 -0.3246 0.3877
vn 0.5709 -0.3626 -0.7366
vn 0.9729 -0.2199 -0.0708
vn 0.6946 0.0268 -0.7189
vn -0.3883 -0.0853 0.9176
vn -0.6611 0.1430 -0.7366
vn -0.9861 -0.0898 -0.1401
vn -0.7620 0.0780 -0.6428
vn -0.9667 0.1155 -0.2284
vn -0.8152 0.4398 -0.3769
vn -0.7409 0.3485 -0.5741
vn -0.2901 0.0136 -0.9569
vn -0.8507 0.1781 -0.4946
vn -0.9217 -0.0089 -0.3877
vn 0.7922 -0.2836 0.5404
vn 0.2522 0.1340 -0.9584
vn -0.2902 0.4228 -0.8585
vn -0.8572 0.2519 -0.4491
vn 0.9077 -0.2996 0.2938
vn 0.7145 0.1371 0.6861
vn -0.7883 0.5357 -0.3025
vn 0.6861 -0.0687 -0.7243
vn 0.0091 0.3990 -0.9169
vn -0.3145 -0.2715 0.9096
vn -0.9142 0.3932 -0.0982
vn -0.8724 0.3795 -0.3081
vn -0.3339 0.5863 -0.7381
vn 0.0009 0.6540 -0.7565
vn -0.2672 0.3572 -0.8950
vn 0.3876 -0.2111 0.8973
vn -0.1577 0.3054 -0.9391
vn 0.7381 -0.3386 -0.5836
vn -0.6564 0.1233 -0.7442
vn 0.5292 0.4711 0.7057
vn 0.0344 0.7462 0.6649
vn 0.1938 -0.0668 -0.9788
vn 0.4049 -0.1246 -0.9058
vn -0.0708 0.0721 -0.9949
vn 0.5553 0.6115 0.5636
vn 0.9983 -0.0192 0.0542
vn -0.2126 0.9684 -0.1308
vn -0.3344 0.8558 -0.3948
vn -0.5843 0.1219 0.8023
vn -0.2625 -0.2042 0.9431
vn 0.8735 0.3543 -0.3339
vn 0.2562 0.0906 -0.9624
vn 0.3640 0.0725 -0.9286
vn -0.5723 -0.4402 0.6919
vn -0.6740 0.1316 0.7269
vn -0.9716 0.2085 -0.1120
vn -0.7015 0.6343 0.3249
vn -0.7965 0.5784 0.1760
vn -0.0777 0.1012 -0.9918
vn -0.5742 0.0603 0.8165
vn -0.1618 -0.5572 0.8145
vn -0.9154 0.3914 0.0942
vn -0.2020 0.1560 -0.9669
vn 0.6666 -0.3186 0.6739
vn -0.7406 0.3742 -0.5581
vn -0.3000 0.3758 -0.8768
vn -0.9437 0.3119 0.1101
vn -0.3851 0.4285 -0.8174
vn -0.8725 0.2049 -0.4435
vn 0.8246 -0.4853 0.2906
vn 0.2269 -0.4635 0.8565
vn 0.9372 0.2389 -0.2539
vn 0.2245 -0.4629 0.8575
vn 0.9557 0.0309 -0.2928
vn -0.9151 0.3872 0.1127
vn -0.2119 0.1394 -0.9673
vn -0.9392 -0.3433 0.0103
vn 0.0306 0.3620 -0.9317
vn 0.1025 0.3914 -0.9145
vn 0.1023 0.9897 0.1000
vn -0.8621 0.4983 0.0920
vn -0.0957 0.4977 -0.8620
vn 0.6482 -0.3502 0.6761
vn -0.5378 0.5724 -0.6190
vn 0.4720 0.3077 -0.8262
vn -0.3451 -0.1561 0.9255
vn -0.1191 -0.0233 0.9926
vn 0.9828 -0.0251 0.1831
vn 0.9893 -0.1388 0.0439
vn 0.9486 -0.1947 -0.2494
vn -0.1152 0.4776 -0.8710
vn -0.1504 0.1931 0.9696
vn 0.3019 -0.0002 0.9533
vn 0.9937 -0.0779 0.0800
vn -0.8207 0.5066 -0.2642
vn -0.0037 0.0815 0.9967
vn -0.2011 0.3281 0.9230
vn 0.1305 -0.0628 0.9895
vn -0.6240 0.6973 -0.3527
vn -0.7611 0.6344 0.1347
vn -0.7629 0.6300 0.1451
vn 0.9392 0.2440 -0.2414
vn -0.1599 0.9842 -0.0754
vn 0.5382 0.4551 0.7093
vn -0.0201 0.7979 0.6024
vn -0.0439 -0.4398 0.8970
vn 0.6250 -0.3236 0.7104
vn -0.9651 0.2542 0.0631
vn 0.4989 0.7210 -0.4810
vn 0.5466 -0.0129 0.8373
vn 0.8388 -0.2603 0.4781
vn 0.9824 0.1625 -0.0920
vn -0.3053 0.7814 -0.5442
vn 0.8186 0.3424 -0.4612
vn 0.4286 0.5770 -0.6953
vn 0.5428 -0.2973 0.7855
vn 0.1557 0.9112 -0.3814
vn -0.2571 0.6441 0.7205
vn 0.1937 0.6418 0.7420
vn 0.0943 0.9144 -0.3937
vn 0.8982 0.4359 -0.0564
vn 0.8781 0.4318 0.2063
vn 0.4638 0.7767 -0.4262
vn -0.8500 0.3957 0.3476
vn -0.3246 -0.6792 0.6582
vn -0.5029 -0.7428 0.4419
vn -0.6985 -0.3579 0.6196
vn -0.9332 0.2480 -0.2601
vn -0.9268 -0.2964 0.2307
vn -0.9111 -0.4099 0.0443
vn -0.6478 -0.4387 0.6228
vn 0.0916 0.1881 0.9779
vn -0.6898 -0.7204 -0.0727
vn 0.9804 -0.0518 0.1900
vn 0.4509 0.2026 0.8693
vn 0.3215 0.3455 0.8816
vn 0.3414 0.1808 0.9224
vn 0.7194 0.2972 0.6277
vn 0.4641 0.6368 0.6157
vn 0.8938 -0.1474 0.4235
vn 0.6272 -0.6604 0.4130
vn 0.4293 -0.6271 0.6500
vn -0.2349 0.5202 -0.8211
vn 0.8048 -0.4487 0.3886
vn -0.9324 -0.2017 0.2999
vn -0.9802 -0.1293 0.1501
vn -0.7837 0.0002 0.6211
vn -0.9922 0.0621 0.1077
vn -0.9272 -0.3340 0.1697
vn -0.8165 0.4929 -0.3008
vn -0.7556 0.4411 -0.4842
vn -0.5663 0.4774 -0.6718
vn 0.8445 -0.2718 0.4614
vn -0.1827 0.4774 -0.8595
vn -0.7157 -0.1599 0.6799
vn -0.9417 0.3156 0.1163
vn -0.6051 -0.7152 0.3497
vn 0.9772 -0.2070 0.0476
vn 0.8362 0.5308 0.1378
vn -0.2272 -0.5481 0.8050
vn 0.7463 -0.4601 0.4809
vn 0.9022 -0.0525 0.4282
vn 0.8067 -0.5193 0.2821
vn 0.9030 -0.4288 0.0257
vn 0.9510 -0.2179 0.2194
vn -0.2378 -0.5317 0.8128
vn 0.9774 -0.1383 -0.1598
vn 0.9051 -0.4253 -0.0024
vn 0.5376 -0.4668 0.7022
vn 0.7992 -0.3801 0.4656
vn 0.8766 -0.3039 0.3730
vn -0.5907 0.6301 0.5040
vn -0.6831 0.6685 0.2942
vn -0.3842 0.8920 0.2381
vn -0.9704 0.0898 -0.2243
vn -0.9809 -0.1767 0.0809
vn -0.8029 -0.4369 0.4056
vn -0.1824 0.5195 -0.8348
vn 0.2336 -0.3346 0.9129
vn 0.6627 -0.2856 0.6923
vn -0.3180 0.0174 0.9479
vn 0.3146 -0.2703 0.9099
vn -0.9725 0.1706 0.1583
vn -0.7754 -0.2693 0.5712
vn -0.4623 -0.4891 0.7396
vn -0.7952 0.5471 -0.2614
vn 0.6478 -0.5608 0.5156
vn -0.9935 -0.1087 -0.0340
vn -0.9518 -0.2951 0.0833
vn -0.5465 0.3274 -0.7708
vn -0.8396 0.3831 -0.3850
vn -0.2993 0.2312 0.9257
vn -0.9659 0.2587 0.0043
vn -0.9686 0.2480 0.0172
vn -0.8050 0.4078 0.4310
vn 0.0741 -0.7664 0.6380
vn -0.4090 -0.6164 0.6729
vn 0.3444 -0.7269 0.5942
vn -0.9705 0.1847 0.1550
vn 0.8995 0.3989 -0.1782
vn -0.8756 0.4826 -0.0227
vn 0.8701 -0.2968 0.3934
vn -0.4897 0.3883 -0.7806
vn -0.8606 -0.3616 0.3587
vn -0.7466 -0.3965 0.5342
vn 0.7558 -0.4455 0.4799
vn 0.9073 -0.3195 0.2734
vn -0.9212 0.3870 0.0400
vn -0.8763 -0.1048 0.4703
vn -0.8807 -0.4023 0.2501
vn 0.7898 0.6125 0.0334
vn -0.9539 0.2715 -0.1279
vn -0.9966 -0.0791 0.0222
vn -0.7413 -0.5709 0.3530
vn -0.9952 -0.0440 -0.0869
vn -0.9512 0.1099 -0.2883
vn -0.7463 -0.0347 0.6647
vn -0.8391 -0.0256 0.5434
vn -0.8435 -0.2384 0.4814
vn 0.1007 -0.9036 0.4163
vn 0.9951 0.0988 0.0105
vn -0.8683 -0.3172 0.3813
vn 0.9673 0.2458 -0.0623
vn -0.7784 0.4485 -0.4393
vn -0.9448 0.2734 -0.1804
vn -0.2911 -0.5860 0.7562
vn -0.5013 0.0853 0.8611
vn 0.9806 -0.0441 0.1909
vn 0.6410 -0.5814 0.5011
vn 0.9105 0.2131 0.3543
vn 0.0092 0.9292 0.3694
vn 0.9719 -0.2296 0.0512
vn -0.1972 0.3490 0.9161
vn 0.4206 0.9067 0.0323
vn 0.6366 -0.6393 0.4312
vn 0.5808 0.8038 -0.1288
vn 0.8794 0.0973 0.4660
vn -0.3808 -0.8178 0.4316
vn -0.7444 -0.5668 0.3530
vn 0.0077 -0.9160 0.4011
vn -0.4727 0.8520 -0.2251
vn -0.8957 -0.2564 0.3634
vn 0.9727 -0.0650 0.2227
vn -0.9979 0.0608 -0.0207
vn 0.9760 -0.1580 0.1501
vn 0.3028 -0.6287 0.7163
vn 0.9837 -0.1011 0.1485
vn -0.9222 -0.3845 0.0400
vn -0.4801 0.6304 -0.6100
vn -0.4641 0.6493 -0.6025
vn -0.5386 0.2633 -0.8004
vn 0.9981 0.0290 -0.0552
vn -0.8564 0.3171 -0.4074
vn 0.3882 -0.4463 0.8063
vn -0.9752 0.0494 0.2156
vn -0.9650 0.2041 0.1646
vn -0.7371 -0.5808 0.3453
vn 0.9173 -0.3982 0.0085
vn -0.5436 -0.2619 0.7974
vn -0.9815 0.1289 -0.1417
vn 0.7447 0.5029 -0.4386
vn 0.3431 -0.7088 0.6163
vn 0.8737 -0.4660 0.1394
vn -0.9478 0.3128 0.0614
vn -0.1113 -0.8656 0.4882
vn 0.2823 -0.4384 0.8533
vn 0.9872 -0.1131 -0.1120
vn -0.7711 0.6074 -0.1912
vn 0.2061 -0.8456 0.4924
vn 0.3125 -0.9499 0.0091
vn 0.8884 -0.3121 0.3366
vn 0.0519 0.8241 -0.5641
vn -0.7527 0.4658 -0.4652
vn -0.1436 0.8156 -0.5606
vn -0.0888 0.8410 -0.5338
vn -0.9981 0.0405 -0.0462
vn -0.9878 0.0036 -0.1557
vn 0.1727 -0.3864 0.9060
vn 0.7365 -0.3485 0.5798
vn -0.5390 -0.3959 0.7435
vn -0.1726 0.9656 0.1944
vn -0.1755 -0.6137 0.7698
vn 0.4250 0.9036 -0.0546
vn -0.8710 -0.2629 0.4150
vn -0.8449 -0.5016 0.1857
vn -0.8009 -0.5897 0.1043
vn -0.5637 0.7310 -0.3845
vn 0.3147 0.5408 0.7800
vn 0.8840 -0.3255 0.3354
vn -0.2731 0.3260 -0.9051
vn -0.1475 0.8061 -0.5731
vn -0.0704 0.5870 -0.8065
vn 0.4250 0.4874 -0.7628
vn 0.7913 0.5389 -0.2889
vn 0.4833 0.8264 -0.2891
vn -0.0701 0.1043 0.9921
vn -0.0321 0.9923 0.1194
vn -0.4186 -0.7515 0.5099
vn 0.4525 0.8627 0.2259
vn -0.2511 -0.7607 0.5986
vn -0.6553 -0.4737 0.5884
vn 0.7270 -0.6863 0.0222
vn -0.9650 0.1529 0.2132
vn -0.8718 0.4864 -0.0589
vn -0.6812 0.7270 -0.0859
vn 0.0933 0.8423 -0.5308
vn 0.5961 0.7955 -0.1083
vn 0.3889 0.9012 -0.1910
vn -0.9854 0.0144 -0.1694
vn -0.9969 -0.0164 -0.0770
vn 0.9872 -0.0422 0.1540
vn 0.7837 -0.3901 0.4834
vn -0.3673 0.5665 0.7377
vn -0.0709 -0.5888 0.8052
vn -0.3702 -0.3810 0.8472
vn 0.5410 -0.6824 0.4915
vn 0.9721 -0.1829 -0.1466
vn 0.8701 -0.2967 -0.3936
vn 0.5196 -0.6654 0.5360
vn 0.8805 -0.2189 0.4204
vn 0.8630 -0.2976 0.4083
vn -0.7215 0.3269 0.6104
vn -0.4034 -0.4116 0.8172
vn 0.9445 -0.0765 -0.3196
vn 0.4803 0.5752 -0.6622
vn 0.7459 0.2832 -0.6029
vn 0.6126 -0.6748 0.4116
vn -0.6018 0.7887 0.1256
vn -0.7328 0.6101 0.3012
vn -0.2053 0.9722 -0.1129
vn -0.2027 0.9295 -0.3081
vn -0.0406 0.9761 -0.2136
vn 0.3792 0.8897 -0.2541
vn 0.2589 0.9537 -0.1532
vn -0.5498 -0.2319 0.8024
vn 0.4960 0.7933 -0.3529
vn 0.9932 0.1140 -0.0254
vn -0.9781 0.1666 -0.1250
vn 0.9475 -0.1197 0.2966
vn 0.1436 -0.1161 0.9828
vn 0.0137 0.0503 0.9986
vn 0.5218 -0.3050 0.7967
vn 0.9983 0.0083 -0.0584
vn 0.3585 -0.2509 0.8992
vn -0.0503 0.8636 0.5017
vn 0.6460 0.7497 -0.1435
vn 0.9025 0.4307 0.0029
vn -0.5418 -0.4666 0.6991
vn -0.8344 -0.0723 0.5463
vn 0.8443 -0.3889 0.3685
vn -0.9340 0.3207 0.1576
vn 0.9574 -0.2312 0.1731
vn 0.6523 0.4565 0.6050
vn 0.6150 0.5582 0.5570
vn -0.8123 0.0188 0.5830
vn -0.8670 0.4867 -0.1069
vn -0.9408 0.2942 0.1686
vn -0.9261 0.3677 0.0851
vn 0.9427 -0.2128 0.2568
vn -0.7909 0.5265 -0.3119
vn -0.6111 0.6882 -0.3910
vn 0.3192 -0.3009 0.8987
vn -0.5704 0.0353 0.8206
vn 0.6479 -0.5168 0.5595
vn 0.9705 -0.1717 0.1694
vn 0.4910 0.8123 -0.3148
vn 0.5843 -0.1306 0.8009
vn -0.4380 0.2739 0.8563
vn -0.0549 0.2323 0.9711
vn 0.9225 -0.1920 0.3349
vn 0.9886 -0.1154 -0.0965
vn -0.7191 0.6847 0.1192
vn -0.6451 0.7372 -0.2010
vn -0.6228 0.7737 0.1164
vn -0.6919 0.7166 -0.0880
vn 0.1570 0.4542 0.8770
vn 0.6706 0.4348 0.6010
vn -0.2411 0.9565 0.1640
vn -0.4017 0.9048 -0.1414
vn -0.3684 0.8775 -0.3070
vn -0.3777 0.8592 -0.3451
vn 0.5003 0.8181 -0.2835
vn 0.1608 -0.4962 -0.8532
vn -0.2928 -0.1852 -0.9381
vn -0.8334 0.1249 -0.5384
vn -0.4223 -0.1830 -0.8878
vn 0.4791 0.8610 -0.1707
vn 0.4754 0.8567 -0.2001
vn 0.6912 -0.1697 0.7024
vn 0.8946 -0.4460 0.0277
vn 0.4294 -0.6498 -0.6272
vn 0.8294 0.4958 0.2574
vn 0.2771 0.9384 0.2063
vn 0.8056 -0.0217 -0.5920
vn 0.9464 -0.2978 0.1249
vn 0.7937 -0.1487 0.5898
vn 0.9217 -0.3622 0.1388
vn 0.2958 -0.8088 -0.5083
vn 0.7308 -0.0420 0.6813
vn 0.8434 -0.3791 0.3807
vn -0.9129 0.3331 -0.2358
vn -0.6333 0.1661 -0.7559
vn -0.9115 0.3266 -0.2501
vn -0.8261 0.2264 -0.5160
vn -0.9117 0.3925 0.1214
vn -0.6526 0.1311 -0.7463
vn -0.9276 0.3678 0.0661
vn -0.1579 0.9328 0.3241
vn -0.4191 -0.1455 -0.8962
vn -0.6857 0.3084 -0.6593
vn 0.8576 -0.3928 -0.3321
vn 0.7519 -0.2820 -0.5959
vn -0.3886 -0.0852 0.9175
vn -0.9783 0.1938 -0.0737
vn -0.9252 0.3604 0.1187
vn -0.3973 0.9022 -0.1678
vn -0.1794 -0.1502 -0.9722
vn -0.3715 -0.1721 -0.9123
vn 0.8916 -0.4154 0.1802
vn -0.8342 0.5372 0.1242
vn -0.7495 0.3852 -0.5383
vn -0.9916 -0.1147 -0.0594
vn -0.8380 0.0063 -0.5456
vn -0.9725 0.1397 0.1863
vn -0.7895 0.0659 -0.6102
vn -0.2322 -0.1293 -0.9640
vn 0.1315 0.0042 -0.9913
vn -0.5569 0.6984 0.4495
vn -0.8219 0.4897 -0.2910
vn -0.1763 0.1443 -0.9737
vn -0.7152 0.4935 -0.4950
vn 0.6341 -0.3056 0.7103
vn 0.5109 -0.2440 0.8243
vn -0.7858 0.4561 0.4178
vn -0.8550 0.4696 0.2201
vn -0.5969 0.6922 0.4057
vn -0.6428 0.1723 -0.7464
vn 0.8919 -0.4151 0.1795
vn -0.2327 -0.0642 -0.9704
vn 0.8420 -0.3885 0.3743
vn -0.7100 0.4214 -0.5641
vn 0.9594 -0.2140 0.1838
vn -0.3642 -0.2589 0.8946
vn -0.9432 0.3119 0.1141
vn 0.5441 0.0887 -0.8343
vn 0.9709 -0.1725 -0.1664
vn -0.9058 0.2317 -0.3548
vn 0.7195 -0.2576 0.6449
vn -0.8857 0.1649 -0.4340
vn -0.9276 0.1546 -0.3402
vn 0.8836 -0.3695 -0.2875
vn 0.6025 0.5539 0.5746
vn -0.1891 0.8536 0.4854
vn -0.1874 0.8621 0.4708
vn 0.9028 -0.2980 0.3100
vn 0.9285 -0.2200 0.2992
vn -0.4914 0.8685 0.0644
vn 0.3255 0.7445 -0.5829
vn 0.8863 0.4599 -0.0540
vn 0.8879 -0.2618 0.3783
vn 0.0338 0.6786 -0.7337
vn 0.9346 -0.1745 -0.3098
vn -0.4379 0.1552 -0.8855
vn -0.2282 0.1897 -0.9550
vn 0.9963 -0.0748 -0.0426
vn -0.7835 0.3271 -0.5284
vn 0.8618 -0.3373 0.3790
vn 0.9001 -0.3655 -0.2371
vn -0.4407 0.2555 -0.8605
vn 0.5252 0.8335 0.1713
vn -0.9645 0.1577 0.2117
vn -0.8827 0.1781 -0.4348
vn 0.7330 -0.6420 -0.2247
vn -0.1594 0.8206 -0.5489
vn -0.7513 0.6597 0.0196
vn -0.9157 -0.0305 0.4006
vn 0.4840 0.6944 0.5325
vn 0.4021 0.3639 -0.8402
vn 0.8001 -0.3173 0.5090
vn 0.1243 0.2219 0.9671
vn -0.7302 0.3379 -0.5938
vn -0.7063 0.6826 -0.1876
vn 0.3812 -0.4868 0.7859
vn 0.0900 0.8846 -0.4575
vn -0.7068 -0.1362 0.6942
vn -0.6277 0.0969 0.7724
vn -0.8552 0.1089 0.5067
vn 0.5072 0.8613 -0.0291
vn 0.6454 -0.3032 0.7011
vn 0.3064 -0.8127 -0.4957
vn 0.6569 -0.3215 0.6820
vn 0.3155 0.1200 0.9413
vn -0.6984 0.7098 -0.0915
vn 0.7404 0.0620 -0.6693
vn 0.8541 -0.0161 -0.5199
vn 0.8792 0.4292 0.2070
vn -0.5732 0.1250 0.8098
vn 0.0543 0.5881 -0.8070
vn 0.4079 0.5189 -0.7512
vn -0.0322 0.5675 -0.8228
vn 0.7180 0.2195 -0.6605
vn 0.0735 -0.2175 0.9733
vn 0.8003 -0.3271 0.5025
vn -0.7715 0.5976 -0.2184
vn 0.8890 -0.2448 0.3869
vn -0.4312 0.5781 -0.6927
vn 0.1840 -0.2910 0.9389
vn -0.8870 0.3433 -0.3089
vn 0.9630 -0.0959 0.2517
vn -0.2729 0.1204 0.9545
vn -0.5821 0.3613 0.7285
vn -0.0196 0.6698 -0.7423
vn 0.6621 -0.2863 0.6926
vn -0.7332 0.5427 0.4097
vn -0.6270 0.6998 -0.3422
vn -0.4876 0.8473 -0.2103
vn 0.1087 0.4807 -0.8701
vn 0.9834 0.0937 0.1553
vn 0.9664 0.2566 -0.0150
vn 0.0445 0.7234 -0.6890
vn -0.1809 0.5325 -0.8268
vn 0.9099 -0.2101 0.3578
vn 0.2221 0.0838 0.9714
vn 0.9994 0.0346 0.0086
vn -0.1453 0.6517 -0.7444
vn 0.8042 0.3602 -0.4727
vn -0.5098 0.8601 -0.0175
vn 0.1804 0.5729 -0.7995
vn 0.5562 0.5412 -0.6307
vn 0.9798 0.1944 -0.0463
vn -0.3414 0.7779 -0.5276
vn 0.5388 -0.1004 0.8365
vn 0.9553 -0.2863 -0.0738
vn -0.5553 0.7678 0.3196
vn 0.8776 -0.2296 0.4208
vn -0.5663 0.8014 0.1925
vn -0.1250 0.4116 0.9027
vn 0.7435 0.0073 0.6687
vn 0.1310 -0.0631 0.9894
vn -0.3788 0.9223 -0.0769
vn 0.0760 0.9484 -0.3078
vn 0.8855 0.2245 0.4067
vn 0.4834 0.8721 0.0762
vn 0.1052 0.9426 0.3170
usemtl Default_OBJ
s off
f 3//1 14//1 4//1
f 8//2 5//2 7//2
f 6//3 7//3 5//3
f 9//4 7//4 6//4
f 15//5 17//5 11//5
f 11//6 12//6 14//6
f 12//7 13//7 14//7
f 9//8 22//8 7//8
f 13//9 18//9 16//9
f 13//10 12//10 21//10
f 15//11 23//11 17//11
f 19//12 22//12 1//12
f 18//13 32//13 100//13
f 18//14 21//14 32//14
f 19//15 1//15 97//15
f 12//16 17//16 23//16
f 23//17 20//17 12//17
f 21//18 26//18 32//18
f 25//19 26//19 24//19
f 24//20 26//20 21//20
f 27//21 19//21 97//21
f 32//22 36//22 100//22
f 24//23 29//23 25//23
f 25//24 39//24 26//24
f 28//25 31//25 22//25
f 22//26 19//26 28//26
f 30//27 29//27 43//27
f 35//28 27//28 108//28
f 38//29 37//29 32//29
f 43//30 40//30 39//30
f 31//31 28//31 42//31
f 33//32 51//32 50//32
f 47//33 44//33 42//33
f 50//34 79//34 43//34
f 42//35 41//35 46//35
f 46//36 45//36 48//36
f 48//37 45//37 49//37
f 51//38 52//38 50//38
f 56//39 47//39 46//39
f 51//40 55//40 52//40
f 55//41 54//41 47//41
f 56//42 53//42 48//42
f 460//43 56//43 48//43
f 38//44 58//44 37//44
f 37//45 58//45 36//45
f 38//46 65//46 59//46
f 38//47 59//47 57//47
f 34//48 61//48 38//48
f 39//49 61//49 34//49
f 61//50 65//50 38//50
f 40//51 43//51 63//51
f 63//52 64//52 40//52
f 65//53 72//53 70//53
f 69//54 63//54 73//54
f 79//55 63//55 43//55
f 81//56 78//56 72//56
f 72//57 78//57 70//57
f 72//58 75//58 81//58
f 166//59 76//59 80//59
f 75//60 77//60 81//60
f 165//61 167//61 80//61
f 9//62 87//62 90//62
f 86//63 2//63 85//63
f 85//64 84//64 89//64
f 86//65 6//65 2//65
f 87//66 6//66 86//66
f 10//67 16//67 92//67
f 91//68 87//68 88//68
f 89//69 95//69 88//69
f 89//70 92//70 94//70
f 16//71 96//71 94//71
f 99//72 91//72 95//72
f 95//73 89//73 93//73
f 1//74 90//74 97//74
f 98//75 90//75 91//75
f 95//76 93//76 101//76
f 97//77 90//77 98//77
f 101//78 99//78 95//78
f 109//79 91//79 99//79
f 94//80 106//80 103//80
f 107//81 93//81 103//81
f 109//82 98//82 91//82
f 104//83 99//83 101//83
f 105//84 98//84 109//84
f 120//85 108//85 105//85
f 117//86 115//86 118//86
f 119//87 104//87 112//87
f 117//88 116//88 109//88
f 115//89 104//89 119//89
f 123//90 120//90 116//90
f 124//91 117//91 121//91
f 123//92 49//92 120//92
f 122//93 119//93 112//93
f 125//94 49//94 123//94
f 125//95 123//95 124//95
f 127//96 125//96 124//96
f 57//97 60//97 58//97
f 130//98 60//98 131//98
f 110//99 134//99 132//99
f 130//100 131//100 133//100
f 134//101 136//101 141//101
f 132//102 134//102 141//102
f 122//103 135//103 139//103
f 143//104 136//104 137//104
f 143//105 137//105 145//105
f 145//106 137//106 142//106
f 132//107 141//107 147//107
f 143//108 145//108 144//108
f 140//109 152//109 146//109
f 147//110 143//110 144//110
f 149//111 146//111 536//111
f 147//112 144//112 477//112
f 149//113 536//113 537//113
f 142//114 475//114 148//114
f 129//115 122//115 139//115
f 146//116 152//116 536//116
f 154//117 47//117 56//117
f 154//118 55//118 47//118
f 153//119 460//119 155//119
f 154//120 184//120 55//120
f 154//121 160//121 162//121
f 164//122 163//122 161//122
f 164//123 161//123 470//123
f 204//124 164//124 470//124
f 80//125 167//125 166//125
f 79//126 170//126 167//126
f 166//127 167//127 168//127
f 76//128 166//128 169//128
f 77//129 169//129 172//129
f 77//130 174//130 81//130
f 168//131 167//131 170//131
f 170//132 171//132 173//132
f 170//133 173//133 168//133
f 171//134 52//134 180//134
f 55//135 184//135 52//135
f 168//136 173//136 175//136
f 176//137 177//137 172//137
f 241//138 174//138 177//138
f 178//139 179//139 171//139
f 179//140 181//140 176//140
f 176//141 181//141 177//141
f 181//142 188//142 177//142
f 177//143 188//143 185//143
f 186//144 183//144 178//144
f 182//145 187//145 190//145
f 189//146 183//146 191//146
f 189//147 192//147 188//147
f 191//148 186//148 205//148
f 199//149 190//149 193//149
f 192//150 189//150 200//150
f 185//151 194//151 195//151
f 200//152 208//152 201//152
f 192//153 201//153 194//153
f 207//154 205//154 199//154
f 200//155 205//155 220//155
f 200//156 220//156 208//156
f 217//157 193//157 202//157
f 201//158 208//158 214//158
f 208//159 213//159 214//159
f 213//160 208//160 225//160
f 217//161 211//161 193//161
f 224//162 211//162 217//162
f 220//163 207//163 224//163
f 208//164 220//164 225//164
f 223//165 224//165 217//165
f 220//166 532//166 225//166
f 225//167 532//167 231//167
f 239//168 240//168 539//168
f 174//169 241//169 238//169
f 242//170 241//170 185//170
f 541//171 242//171 243//171
f 243//172 242//172 185//172
f 243//173 197//173 498//173
f 464//174 125//174 127//174
f 128//175 127//175 124//175
f 126//176 128//176 119//176
f 464//177 460//177 125//177
f 128//178 126//178 461//178
f 461//179 126//179 129//179
f 464//180 127//180 462//180
f 462//181 128//181 461//181
f 467//182 464//182 465//182
f 468//183 467//183 465//183
f 468//184 466//184 471//184
f 470//185 469//185 472//185
f 474//186 149//186 537//186
f 148//187 475//187 479//187
f 147//188 477//188 150//188
f 150//189 139//189 135//189
f 474//190 479//190 475//190
f 478//191 477//191 479//191
f 150//192 151//192 139//192
f 476//193 139//193 151//193
f 474//194 537//194 482//194
f 461//195 129//195 476//195
f 463//196 461//196 476//196
f 480//197 150//197 478//197
f 151//198 150//198 481//198
f 486//199 151//199 481//199
f 482//200 491//200 484//200
f 489//201 486//201 481//201
f 489//202 481//202 480//202
f 487//203 484//203 491//203
f 487//204 490//204 480//204
f 488//205 463//205 496//205
f 486//206 496//206 485//206
f 497//207 490//207 492//207
f 491//208 499//208 494//208
f 495//209 466//209 488//209
f 466//210 463//210 488//210
f 500//211 497//211 492//211
f 498//212 503//212 499//212
f 497//213 488//213 496//213
f 503//214 504//214 494//214
f 473//215 469//215 471//215
f 518//216 495//216 488//216
f 518//217 488//217 497//217
f 500//218 505//218 497//218
f 204//219 470//219 472//219
f 472//220 469//220 473//220
f 507//221 528//221 527//221
f 520//222 518//222 513//222
f 505//223 520//223 513//223
f 505//224 500//224 519//224
f 513//225 497//225 505//225
f 520//226 508//226 518//226
f 519//227 520//227 505//227
f 519//228 527//228 520//228
f 511//229 527//229 519//229
f 526//230 231//230 532//230
f 223//231 472//231 523//231
f 523//232 520//232 532//232
f 528//233 521//233 527//233
f 523//234 472//234 508//234
f 523//235 508//235 520//235
f 224//236 523//236 532//236
f 536//237 539//237 538//237
f 240//238 540//238 539//238
f 542//239 499//239 482//239
f 541//240 243//240 540//240
f 243//241 499//241 540//241
f 243//242 498//242 499//242
f 90//243 1//243 9//243
f 5//244 3//244 2//244
f 83//245 3//245 4//245
f 3//246 8//246 11//246
f 5//247 8//247 3//247
f 14//248 3//248 11//248
f 6//249 5//249 2//249
f 10//250 4//250 14//250
f 87//251 9//251 6//251
f 10//252 14//252 13//252
f 8//253 15//253 11//253
f 12//254 11//254 17//254
f 15//255 8//255 7//255
f 22//256 9//256 1//256
f 16//257 10//257 13//257
f 16//258 18//258 96//258
f 96//259 18//259 100//259
f 12//260 20//260 21//260
f 18//261 13//261 21//261
f 33//262 15//262 7//262
f 15//263 29//263 23//263
f 21//264 20//264 24//264
f 15//265 33//265 29//265
f 20//266 23//266 29//266
f 24//267 20//267 29//267
f 7//268 31//268 33//268
f 31//269 7//269 22//269
f 26//270 38//270 32//270
f 34//271 26//271 39//271
f 27//272 28//272 19//272
f 26//273 34//273 38//273
f 30//274 25//274 29//274
f 35//275 28//275 27//275
f 29//276 33//276 43//276
f 39//277 25//277 30//277
f 32//278 37//278 36//278
f 44//279 33//279 31//279
f 33//280 50//280 43//280
f 39//281 30//281 43//281
f 44//282 31//282 42//282
f 41//283 42//283 28//283
f 35//284 41//284 28//284
f 44//285 51//285 33//285
f 46//286 41//286 45//286
f 41//287 35//287 45//287
f 120//288 45//288 108//288
f 45//289 35//289 108//289
f 54//290 44//290 47//290
f 42//291 46//291 47//291
f 51//292 44//292 54//292
f 48//293 53//293 46//293
f 51//294 54//294 55//294
f 46//295 53//295 56//295
f 153//296 56//296 460//296
f 58//297 38//297 57//297
f 39//298 69//298 61//298
f 60//299 57//299 59//299
f 69//300 39//300 64//300
f 64//301 39//301 40//301
f 60//302 59//302 131//302
f 59//303 62//303 131//303
f 59//304 65//304 66//304
f 62//305 59//305 66//305
f 69//306 67//306 61//306
f 65//307 61//307 72//307
f 70//308 66//308 65//308
f 68//309 66//309 70//309
f 73//310 67//310 69//310
f 72//311 61//311 71//311
f 69//312 64//312 63//312
f 74//313 67//313 73//313
f 61//314 67//314 71//314
f 71//315 67//315 74//315
f 63//316 79//316 73//316
f 71//317 75//317 72//317
f 70//318 152//318 68//318
f 73//319 165//319 74//319
f 71//320 74//320 75//320
f 78//321 82//321 70//321
f 70//322 82//322 152//322
f 75//323 74//323 80//323
f 80//324 76//324 75//324
f 77//325 75//325 76//325
f 73//326 79//326 165//326
f 80//327 74//327 165//327
f 83//328 2//328 3//328
f 85//329 2//329 83//329
f 84//330 85//330 83//330
f 83//331 4//331 84//331
f 4//332 10//332 92//332
f 87//333 86//333 85//333
f 88//334 87//334 85//334
f 89//335 84//335 92//335
f 4//336 92//336 84//336
f 85//337 89//337 88//337
f 92//338 16//338 94//338
f 93//339 89//339 94//339
f 90//340 87//340 91//340
f 95//341 91//341 88//341
f 96//342 102//342 94//342
f 94//343 102//343 106//343
f 96//344 100//344 102//344
f 97//345 108//345 27//345
f 103//346 93//346 94//346
f 107//347 101//347 93//347
f 105//348 97//348 98//348
f 103//349 102//349 111//349
f 107//350 104//350 101//350
f 102//351 100//351 36//351
f 109//352 99//352 104//352
f 103//353 106//353 102//353
f 110//354 103//354 111//354
f 105//355 108//355 97//355
f 112//356 104//356 107//356
f 107//357 103//357 113//357
f 113//358 103//358 110//358
f 114//359 102//359 36//359
f 115//360 109//360 104//360
f 117//361 109//361 115//361
f 116//362 105//362 109//362
f 112//363 107//363 113//363
f 116//364 120//364 105//364
f 119//365 118//365 115//365
f 117//366 124//366 116//366
f 118//367 121//367 117//367
f 124//368 123//368 116//368
f 121//369 118//369 119//369
f 120//370 49//370 45//370
f 125//371 460//371 49//371
f 126//372 119//372 122//372
f 460//373 48//373 49//373
f 124//374 121//374 128//374
f 128//375 121//375 119//375
f 129//376 126//376 122//376
f 114//377 36//377 58//377
f 130//378 58//378 60//378
f 114//379 58//379 130//379
f 102//380 114//380 130//380
f 111//381 102//381 134//381
f 102//382 130//382 133//382
f 134//383 110//383 111//383
f 132//384 113//384 110//384
f 134//385 102//385 133//385
f 135//386 112//386 113//386
f 62//387 66//387 68//387
f 131//388 62//388 138//388
f 131//389 138//389 133//389
f 134//390 133//390 136//390
f 133//391 138//391 136//391
f 135//392 113//392 132//392
f 112//393 135//393 122//393
f 136//394 138//394 137//394
f 138//395 68//395 140//395
f 140//396 137//396 138//396
f 137//397 140//397 142//397
f 143//398 141//398 136//398
f 68//399 152//399 140//399
f 141//400 143//400 147//400
f 135//401 132//401 147//401
f 142//402 140//402 146//402
f 148//403 145//403 142//403
f 144//404 145//404 148//404
f 148//405 477//405 144//405
f 146//406 149//406 475//406
f 475//407 142//407 146//407
f 150//408 135//408 147//408
f 56//409 156//409 154//409
f 156//410 56//410 153//410
f 155//411 156//411 153//411
f 154//412 156//412 157//412
f 158//413 157//413 156//413
f 158//414 160//414 157//414
f 158//415 156//415 155//415
f 184//416 154//416 162//416
f 160//417 154//417 157//417
f 161//418 160//418 158//418
f 161//419 158//419 159//419
f 158//420 155//420 159//420
f 160//421 163//421 162//421
f 163//422 160//422 161//422
f 470//423 161//423 159//423
f 202//424 164//424 204//424
f 79//425 50//425 170//425
f 165//426 79//426 167//426
f 170//427 50//427 171//427
f 77//428 76//428 169//428
f 52//429 171//429 50//429
f 166//430 168//430 175//430
f 169//431 166//431 175//431
f 174//432 77//432 172//432
f 172//433 169//433 175//433
f 172//434 175//434 176//434
f 174//435 172//435 177//435
f 184//436 180//436 52//436
f 175//437 173//437 179//437
f 178//438 171//438 180//438
f 173//439 171//439 179//439
f 175//440 179//440 176//440
f 184//441 182//441 180//441
f 179//442 183//442 181//442
f 241//443 177//443 185//443
f 178//444 180//444 182//444
f 183//445 179//445 178//445
f 181//446 183//446 189//446
f 181//447 189//447 188//447
f 178//448 182//448 186//448
f 182//449 184//449 187//449
f 184//450 162//450 187//450
f 186//451 182//451 190//451
f 191//452 183//452 186//452
f 163//453 187//453 162//453
f 185//454 188//454 192//454
f 197//455 185//455 195//455
f 186//456 190//456 199//456
f 200//457 189//457 191//457
f 193//458 190//458 187//458
f 193//459 187//459 163//459
f 192//460 200//460 201//460
f 164//461 193//461 163//461
f 185//462 192//462 194//462
f 205//463 186//463 199//463
f 200//464 191//464 205//464
f 202//465 193//465 164//465
f 199//466 193//466 207//466
f 205//467 207//467 220//467
f 211//468 207//468 193//468
f 204//469 217//469 202//469
f 223//470 217//470 204//470
f 224//471 207//471 211//471
f 220//472 224//472 532//472
f 523//473 224//473 223//473
f 78//474 81//474 238//474
f 78//475 238//475 82//475
f 82//476 238//476 239//476
f 81//477 174//477 238//477
f 239//478 238//478 240//478
f 238//479 241//479 240//479
f 240//480 241//480 242//480
f 240//481 242//481 541//481
f 540//482 240//482 541//482
f 243//483 185//483 197//483
f 464//484 155//484 460//484
f 127//485 128//485 462//485
f 462//486 465//486 464//486
f 464//487 159//487 155//487
f 466//488 465//488 462//488
f 466//489 468//489 465//489
f 463//490 462//490 461//490
f 467//491 159//491 464//491
f 466//492 462//492 463//492
f 467//493 468//493 469//493
f 470//494 159//494 467//494
f 469//495 470//495 467//495
f 471//496 469//496 468//496
f 149//497 474//497 475//497
f 148//498 479//498 477//498
f 476//499 129//499 139//499
f 478//500 150//500 477//500
f 484//501 479//501 474//501
f 481//502 150//502 480//502
f 482//503 484//503 474//503
f 484//504 483//504 479//504
f 483//505 478//505 479//505
f 480//506 478//506 483//506
f 485//507 476//507 151//507
f 486//508 485//508 151//508
f 483//509 487//509 480//509
f 487//510 483//510 484//510
f 463//511 476//511 485//511
f 496//512 463//512 485//512
f 490//513 489//513 480//513
f 490//514 487//514 493//514
f 497//515 489//515 490//515
f 492//516 490//516 493//516
f 497//517 486//517 489//517
f 471//518 466//518 495//518
f 493//519 487//519 491//519
f 497//520 496//520 486//520
f 493//521 500//521 492//521
f 499//522 503//522 494//522
f 491//523 494//523 511//523
f 491//524 511//524 493//524
f 494//525 504//525 507//525
f 494//526 507//526 511//526
f 495//527 473//527 471//527
f 508//528 473//528 495//528
f 518//529 508//529 495//529
f 511//530 519//530 500//530
f 511//531 500//531 493//531
f 513//532 518//532 497//532
f 511//533 507//533 527//533
f 223//534 204//534 472//534
f 472//535 473//535 508//535
f 521//536 231//536 526//536
f 520//537 526//537 532//537
f 527//538 521//538 526//538
f 527//539 526//539 520//539
f 82//540 239//540 152//540
f 536//541 152//541 239//541
f 537//542 536//542 538//542
f 536//543 239//543 539//543
f 538//544 539//544 542//544
f 482//545 538//545 542//545
f 537//546 538//546 482//546
f 539//547 540//547 542//547
f 482//548 499//548 491//548
f 542//549 540//549 499//549
f 68//550 138//550 62//550
usemtl Материал
f 197//551 195//551 203//551
f 197//552 203//552 198//552
f 197//553 198//553 244//553
f 244//554 506//554 197//554
f 196//555 219//555 212//555
f 206//556 252//556 219//556
f 209//557 206//557 210//557
f 209//558 201//558 214//558
f 219//559 245//559 212//559
f 214//560 213//560 215//560
f 215//561 221//561 214//561
f 218//562 234//562 206//562
f 218//563 206//563 209//563
f 209//564 214//564 218//564
f 264//565 218//565 214//565
f 215//566 216//566 221//566
f 232//567 225//567 231//567
f 522//568 222//568 232//568
f 252//569 234//569 274//569
f 262//570 234//570 218//570
f 264//571 262//571 218//571
f 264//572 221//572 263//572
f 263//573 221//573 235//573
f 233//574 230//574 258//574
f 252//575 245//575 219//575
f 245//576 254//576 212//576
f 249//577 548//577 244//577
f 252//578 251//578 253//578
f 252//579 253//579 245//579
f 245//580 253//580 254//580
f 253//581 275//581 254//581
f 254//582 275//582 276//582
f 203//583 278//583 247//583
f 255//584 247//584 278//584
f 248//585 229//585 256//585
f 255//586 256//586 257//586
f 255//587 257//587 259//587
f 198//588 247//588 250//588
f 247//589 255//589 259//589
f 247//590 259//590 250//590
f 261//591 234//591 262//591
f 267//592 266//592 263//592
f 235//593 216//593 236//593
f 228//594 222//594 227//594
f 273//595 228//595 272//595
f 274//596 261//596 280//596
f 286//597 256//597 255//597
f 574//598 229//598 233//598
f 257//599 229//599 574//599
f 279//600 257//600 574//600
f 274//601 280//601 292//601
f 331//602 275//602 281//602
f 235//603 283//603 263//603
f 296//604 235//604 236//604
f 284//605 298//605 299//605
f 284//606 212//606 298//606
f 265//607 303//607 285//607
f 287//608 258//608 286//608
f 288//609 279//609 574//609
f 249//610 288//610 290//610
f 309//611 263//611 293//611
f 283//612 293//612 263//612
f 283//613 235//613 295//613
f 297//614 277//614 282//614
f 282//615 311//615 297//615
f 295//616 235//616 296//616
f 314//617 277//617 297//617
f 296//618 236//618 269//618
f 298//619 316//619 299//619
f 284//620 299//620 300//620
f 313//621 265//621 285//621
f 269//622 265//622 313//622
f 313//623 285//623 301//623
f 300//624 302//624 278//624
f 265//625 350//625 303//625
f 318//626 285//626 303//626
f 326//627 304//627 287//627
f 304//628 305//628 287//628
f 258//629 305//629 357//629
f 294//630 333//630 338//630
f 338//631 337//631 294//631
f 282//632 294//632 337//632
f 282//633 337//633 311//633
f 296//634 310//634 295//634
f 311//635 340//635 341//635
f 298//636 342//636 316//636
f 299//637 316//637 317//637
f 271//638 270//638 319//638
f 271//639 319//639 350//639
f 349//640 319//640 270//640
f 321//641 303//641 320//641
f 323//642 321//642 322//642
f 354//643 327//643 326//643
f 287//644 286//644 359//644
f 325//645 359//645 286//645
f 357//646 586//646 575//646
f 329//647 292//647 291//647
f 329//648 291//648 307//648
f 330//649 331//649 329//649
f 309//650 293//650 332//650
f 307//651 309//651 329//651
f 330//652 329//652 332//652
f 331//653 330//653 333//653
f 332//654 293//654 334//654
f 335//655 334//655 339//655
f 338//656 339//656 336//656
f 333//657 335//657 338//657
f 339//658 334//658 283//658
f 337//659 336//659 311//659
f 312//660 311//660 336//660
f 376//661 362//661 312//661
f 341//662 365//662 342//662
f 315//663 301//663 345//663
f 380//664 315//664 344//664
f 316//665 346//665 317//665
f 351//666 318//666 303//666
f 345//667 301//667 318//667
f 369//668 348//668 353//668
f 345//669 351//669 348//669
f 302//670 317//670 347//670
f 323//671 324//671 352//671
f 351//672 323//672 352//672
f 350//673 353//673 324//673
f 305//674 355//674 356//674
f 354//675 355//675 327//675
f 326//676 287//676 359//676
f 358//677 326//677 359//677
f 306//678 328//678 361//678
f 328//679 360//679 361//679
f 357//680 604//680 586//680
f 357//681 406//681 604//681
f 335//682 330//682 332//682
f 340//683 363//683 378//683
f 379//684 377//684 313//684
f 342//685 395//685 343//685
f 315//686 364//686 379//686
f 379//687 313//687 301//687
f 379//688 301//688 315//688
f 368//689 345//689 369//689
f 350//690 398//690 369//690
f 346//691 367//691 317//691
f 367//692 370//692 317//692
f 350//693 319//693 398//693
f 371//694 359//694 385//694
f 359//695 383//695 403//695
f 357//696 356//696 406//696
f 371//697 358//697 359//697
f 403//698 385//698 359//698
f 605//699 615//699 372//699
f 376//700 310//700 377//700
f 378//701 413//701 365//701
f 342//702 365//702 415//702
f 342//703 415//703 393//703
f 394//704 364//704 315//704
f 366//705 396//705 367//705
f 382//706 399//706 383//706
f 373//707 272//707 386//707
f 373//708 386//708 387//708
f 374//709 361//709 388//709
f 409//710 374//710 388//710
f 360//711 388//711 361//711
f 360//712 410//712 388//712
f 376//713 377//713 375//713
f 391//714 375//714 389//714
f 391//715 392//715 390//715
f 411//716 392//716 389//716
f 365//717 413//717 414//717
f 389//718 377//718 379//718
f 411//719 364//719 394//719
f 397//720 416//720 381//720
f 395//721 396//721 366//721
f 397//722 381//722 398//722
f 399//723 404//723 403//723
f 273//724 405//724 401//724
f 384//725 420//725 406//725
f 412//726 392//726 411//726
f 414//727 415//727 365//727
f 393//728 424//728 396//728
f 393//729 415//729 424//729
f 380//730 381//730 416//730
f 397//731 417//731 416//731
f 396//732 426//732 418//732
f 382//733 418//733 399//733
f 400//734 399//734 418//734
f 419//735 405//735 433//735
f 407//736 373//736 387//736
f 413//737 412//737 423//737
f 412//738 422//738 435//738
f 414//739 413//739 423//739
f 415//740 414//740 436//740
f 425//741 417//741 397//741
f 426//742 428//742 418//742
f 428//743 429//743 418//743
f 428//744 427//744 429//744
f 425//745 401//745 431//745
f 400//746 429//746 441//746
f 420//747 400//747 441//747
f 441//748 444//748 420//748
f 420//749 444//749 406//749
f 436//750 438//750 424//750
f 430//751 438//751 446//751
f 439//752 425//752 431//752
f 430//753 439//753 432//753
f 431//754 432//754 439//754
f 406//755 444//755 445//755
f 434//756 406//756 445//756
f 435//757 422//757 437//757
f 436//758 446//758 438//758
f 432//759 443//759 442//759
f 452//760 443//760 433//760
f 434//761 448//761 449//761
f 455//762 449//762 458//762
f 455//763 658//763 647//763
f 447//764 456//764 453//764
f 445//765 459//765 448//765
f 452//766 433//766 421//766
f 454//767 455//767 458//767
f 459//768 451//768 452//768
f 457//769 454//769 458//769
f 501//770 506//770 544//770
f 501//771 550//771 502//771
f 231//772 521//772 232//772
f 522//773 232//773 525//773
f 525//774 232//774 524//774
f 516//775 525//775 524//775
f 525//776 533//776 551//776
f 524//777 521//777 528//777
f 516//778 524//778 528//778
f 510//779 547//779 512//779
f 531//780 512//780 547//780
f 530//781 512//781 531//781
f 533//782 516//782 552//782
f 552//783 515//783 534//783
f 197//784 506//784 498//784
f 506//785 549//785 544//785
f 502//786 550//786 545//786
f 550//787 563//787 545//787
f 545//788 546//788 510//788
f 547//789 510//789 546//789
f 525//790 237//790 522//790
f 551//791 533//791 554//791
f 552//792 516//792 515//792
f 553//793 530//793 531//793
f 555//794 535//794 529//794
f 530//795 555//795 529//795
f 530//796 553//796 555//796
f 556//797 237//797 525//797
f 556//798 525//798 551//798
f 260//799 575//799 233//799
f 544//800 549//800 560//800
f 548//801 289//801 565//801
f 559//802 568//802 543//802
f 543//803 580//803 549//803
f 545//804 573//804 561//804
f 562//805 561//805 564//805
f 553//806 562//806 564//806
f 565//807 559//807 548//807
f 559//808 565//808 566//808
f 554//809 533//809 557//809
f 553//810 564//810 585//810
f 559//811 566//811 577//811
f 559//812 577//812 568//812
f 552//813 557//813 533//813
f 595//814 570//814 581//814
f 573//815 582//815 583//815
f 558//816 553//816 585//816
f 585//817 564//817 584//817
f 575//818 586//818 574//818
f 565//819 374//819 587//819
f 566//820 565//820 587//820
f 577//821 566//821 587//821
f 609//822 577//822 587//822
f 554//823 567//823 576//823
f 578//824 567//824 588//824
f 576//825 567//825 589//825
f 596//826 570//826 595//826
f 580//827 594//827 572//827
f 595//828 581//828 600//828
f 597//829 595//829 600//829
f 598//830 595//830 597//830
f 596//831 595//831 598//831
f 598//832 597//832 572//832
f 600//833 602//833 601//833
f 585//834 602//834 558//834
f 583//835 601//835 603//835
f 603//836 584//836 583//836
f 604//837 606//837 586//837
f 605//838 617//838 607//838
f 605//839 607//839 615//839
f 551//840 576//840 612//840
f 611//841 551//841 612//841
f 324//842 323//842 322//842
f 610//843 590//843 577//843
f 610//844 623//844 590//844
f 580//845 592//845 594//845
f 594//846 592//846 614//846
f 598//847 572//847 599//847
f 586//848 606//848 617//848
f 617//849 616//849 607//849
f 610//850 609//850 608//850
f 354//851 358//851 356//851
f 618//852 613//852 578//852
f 591//853 590//853 633//853
f 633//854 619//854 591//854
f 591//855 619//855 635//855
f 599//856 594//856 620//856
f 606//857 408//857 621//857
f 615//858 616//858 622//858
f 616//859 621//859 630//859
f 622//860 616//860 630//860
f 621//861 616//861 617//861
f 556//862 611//862 626//862
f 623//863 629//863 590//863
f 624//864 612//864 613//864
f 352//865 324//865 353//865
f 598//866 599//866 620//866
f 637//867 598//867 620//867
f 410//868 630//868 409//868
f 590//869 629//869 644//869
f 612//870 624//870 625//870
f 632//871 625//871 618//871
f 614//872 635//872 636//872
f 628//873 598//873 637//873
f 386//874 640//874 387//874
f 648//875 649//875 630//875
f 640//876 556//876 626//876
f 631//877 625//877 642//877
f 643//878 631//878 642//878
f 633//879 651//879 619//879
f 634//880 557//880 654//880
f 645//881 634//881 654//881
f 654//882 593//882 628//882
f 648//883 621//883 647//883
f 649//884 648//884 660//884
f 649//885 660//885 661//885
f 642//886 632//886 662//886
f 644//887 652//887 633//887
f 651//888 635//888 619//888
f 635//889 651//889 663//889
f 654//890 628//890 656//890
f 657//891 656//891 638//891
f 654//892 656//892 653//892
f 653//893 656//893 657//893
f 640//894 658//894 639//894
f 659//895 639//895 658//895
f 621//896 455//896 647//896
f 658//897 641//897 650//897
f 665//898 660//898 643//898
f 632//899 634//899 662//899
f 653//900 664//900 646//900
f 655//901 636//901 663//901
f 653//902 657//902 664//902
f 657//903 655//903 664//903
f 455//904 659//904 658//904
f 658//905 650//905 647//905
f 661//906 665//906 666//906
f 665//907 668//907 666//907
f 667//908 655//908 663//908
f 667//909 646//909 664//909
f 668//910 646//910 667//910
f 667//911 664//911 655//911
f 195//912 196//912 203//912
f 210//913 194//913 201//913
f 201//914 209//914 210//914
f 194//915 210//915 219//915
f 195//916 219//916 196//916
f 194//917 219//917 195//917
f 210//918 206//918 219//918
f 246//919 196//919 212//919
f 216//920 215//920 213//920
f 206//921 234//921 252//921
f 221//922 264//922 214//922
f 213//923 225//923 226//923
f 213//924 226//924 216//924
f 222//925 216//925 226//925
f 232//926 226//926 225//926
f 222//927 226//927 232//927
f 229//928 230//928 233//928
f 235//929 221//929 216//929
f 270//930 216//930 222//930
f 230//931 248//931 258//931
f 237//932 227//932 522//932
f 196//933 246//933 278//933
f 203//934 196//934 278//934
f 198//935 203//935 247//935
f 244//936 198//936 249//936
f 274//937 251//937 252//937
f 277//938 254//938 276//938
f 212//939 254//939 277//939
f 278//940 286//940 255//940
f 257//941 256//941 229//941
f 248//942 256//942 258//942
f 249//943 198//943 250//943
f 233//944 258//944 260//944
f 234//945 261//945 274//945
f 264//946 266//946 262//946
f 263//947 266//947 264//947
f 270//948 265//948 216//948
f 222//949 228//949 270//949
f 267//950 261//950 266//950
f 266//951 261//951 262//951
f 263//952 308//952 267//952
f 269//953 216//953 265//953
f 270//954 271//954 265//954
f 227//955 272//955 228//955
f 308//956 268//956 267//956
f 272//957 227//957 237//957
f 349//958 270//958 228//958
f 273//959 349//959 228//959
f 251//960 274//960 281//960
f 253//961 251//961 281//961
f 275//962 253//962 281//962
f 212//963 277//963 314//963
f 278//964 246//964 284//964
f 212//965 284//965 246//965
f 286//966 258//966 256//966
f 250//967 259//967 279//967
f 259//968 257//968 279//968
f 249//969 250//969 279//969
f 280//970 261//970 267//970
f 274//971 292//971 281//971
f 282//972 276//972 275//972
f 282//973 275//973 294//973
f 277//974 276//974 282//974
f 269//975 236//975 216//975
f 212//976 314//976 298//976
f 278//977 284//977 300//977
f 302//978 286//978 278//978
f 305//979 258//979 287//979
f 249//980 279//980 288//980
f 258//981 357//981 260//981
f 260//982 357//982 575//982
f 249//983 290//983 289//983
f 280//984 267//984 291//984
f 280//985 291//985 292//985
f 268//986 291//986 267//986
f 281//987 292//987 331//987
f 309//988 308//988 263//988
f 275//989 333//989 294//989
f 318//990 301//990 285//990
f 325//991 286//991 302//991
f 289//992 290//992 306//992
f 306//993 290//993 328//993
f 291//994 268//994 307//994
f 307//995 268//995 308//995
f 275//996 331//996 333//996
f 297//997 311//997 314//997
f 314//998 311//998 341//998
f 310//999 296//999 269//999
f 298//1000 314//1000 341//1000
f 298//1001 341//1001 342//1001
f 343//1002 316//1002 342//1002
f 300//1003 299//1003 317//1003
f 300//1004 317//1004 302//1004
f 265//1005 271//1005 350//1005
f 303//1006 350//1006 320//1006
f 320//1007 350//1007 322//1007
f 321//1008 320//1008 322//1008
f 321//1009 351//1009 303//1009
f 322//1010 350//1010 324//1010
f 327//1011 304//1011 326//1011
f 327//1012 355//1012 304//1012
f 305//1013 304//1013 355//1013
f 290//1014 288//1014 328//1014
f 331//1015 292//1015 329//1015
f 309//1016 307//1016 308//1016
f 329//1017 309//1017 332//1017
f 335//1018 332//1018 334//1018
f 333//1019 330//1019 335//1019
f 283//1020 334//1020 293//1020
f 337//1021 338//1021 336//1021
f 338//1022 335//1022 339//1022
f 339//1023 283//1023 295//1023
f 312//1024 336//1024 295//1024
f 336//1025 339//1025 295//1025
f 312//1026 362//1026 311//1026
f 340//1027 311//1027 362//1027
f 310//1028 376//1028 312//1028
f 341//1029 340//1029 378//1029
f 365//1030 341//1030 378//1030
f 269//1031 313//1031 310//1031
f 316//1032 343//1032 346//1032
f 345//1033 318//1033 351//1033
f 351//1034 353//1034 348//1034
f 351//1035 321//1035 323//1035
f 350//1036 369//1036 353//1036
f 347//1037 325//1037 302//1037
f 370//1038 325//1038 347//1038
f 355//1039 354//1039 356//1039
f 358//1040 354//1040 326//1040
f 357//1041 305//1041 356//1041
f 288//1042 372//1042 328//1042
f 306//1043 361//1043 565//1043
f 361//1044 374//1044 565//1044
f 340//1045 362//1045 363//1045
f 313//1046 377//1046 310//1046
f 343//1047 395//1047 366//1047
f 343//1048 366//1048 367//1048
f 380//1049 394//1049 315//1049
f 381//1050 344//1050 315//1050
f 380//1051 344//1051 381//1051
f 343//1052 367//1052 346//1052
f 398//1053 319//1053 397//1053
f 368//1054 315//1054 345//1054
f 368//1055 381//1055 315//1055
f 347//1056 317//1056 370//1056
f 349//1057 397//1057 319//1057
f 369//1058 345//1058 348//1058
f 397//1059 349//1059 273//1059
f 371//1060 356//1060 358//1060
f 356//1061 371//1061 384//1061
f 325//1062 370//1062 359//1062
f 359//1063 370//1063 383//1063
f 406//1064 356//1064 384//1064
f 406//1065 408//1065 604//1065
f 360//1066 328//1066 372//1066
f 372//1067 288//1067 605//1067
f 362//1068 375//1068 363//1068
f 363//1069 375//1069 378//1069
f 375//1070 362//1070 376//1070
f 364//1071 389//1071 379//1071
f 395//1072 342//1072 393//1072
f 369//1073 398//1073 368//1073
f 368//1074 398//1074 381//1074
f 383//1075 367//1075 382//1075
f 370//1076 367//1076 383//1076
f 273//1077 425//1077 397//1077
f 384//1078 371//1078 385//1078
f 403//1079 383//1079 399//1079
f 404//1080 384//1080 385//1080
f 403//1081 404//1081 385//1081
f 373//1082 273//1082 272//1082
f 405//1083 273//1083 373//1083
f 372//1084 410//1084 360//1084
f 391//1085 378//1085 375//1085
f 391//1086 390//1086 378//1086
f 375//1087 377//1087 389//1087
f 391//1088 389//1088 392//1088
f 390//1089 413//1089 378//1089
f 364//1090 411//1090 389//1090
f 393//1091 396//1091 395//1091
f 382//1092 367//1092 396//1092
f 382//1093 396//1093 418//1093
f 400//1094 404//1094 399//1094
f 401//1095 425//1095 273//1095
f 402//1096 401//1096 405//1096
f 384//1097 404//1097 420//1097
f 404//1098 400//1098 420//1098
f 433//1099 405//1099 373//1099
f 410//1100 372//1100 615//1100
f 388//1101 410//1101 409//1101
f 390//1102 392//1102 412//1102
f 413//1103 390//1103 412//1103
f 417//1104 380//1104 416//1104
f 431//1105 401//1105 419//1105
f 419//1106 401//1106 402//1106
f 419//1107 402//1107 405//1107
f 421//1108 373//1108 407//1108
f 422//1109 412//1109 411//1109
f 414//1110 423//1110 436//1110
f 424//1111 415//1111 436//1111
f 394//1112 422//1112 411//1112
f 422//1113 394//1113 380//1113
f 380//1114 437//1114 422//1114
f 417//1115 437//1115 380//1115
f 396//1116 438//1116 426//1116
f 396//1117 424//1117 438//1117
f 426//1118 438//1118 428//1118
f 430//1119 432//1119 427//1119
f 400//1120 418//1120 429//1120
f 428//1121 430//1121 427//1121
f 438//1122 430//1122 428//1122
f 427//1123 432//1123 429//1123
f 432//1124 431//1124 419//1124
f 433//1125 373//1125 421//1125
f 408//1126 406//1126 434//1126
f 387//1127 639//1127 407//1127
f 423//1128 412//1128 435//1128
f 423//1129 435//1129 436//1129
f 417//1130 425//1130 439//1130
f 440//1131 437//1131 417//1131
f 439//1132 440//1132 417//1132
f 430//1133 440//1133 439//1133
f 430//1134 446//1134 440//1134
f 437//1135 440//1135 446//1135
f 442//1136 429//1136 432//1136
f 441//1137 429//1137 442//1137
f 443//1138 432//1138 419//1138
f 444//1139 441//1139 447//1139
f 433//1140 443//1140 419//1140
f 436//1141 435//1141 437//1141
f 446//1142 436//1142 437//1142
f 441//1143 442//1143 447//1143
f 445//1144 444//1144 453//1144
f 444//1145 447//1145 453//1145
f 445//1146 448//1146 434//1146
f 454//1147 407//1147 639//1147
f 621//1148 434//1148 449//1148
f 455//1149 621//1149 449//1149
f 443//1150 450//1150 442//1150
f 442//1151 450//1151 447//1151
f 457//1152 421//1152 407//1152
f 407//1153 454//1153 457//1153
f 455//1154 454//1154 659//1154
f 451//1155 450//1155 443//1155
f 450//1156 456//1156 447//1156
f 450//1157 451//1157 456//1157
f 452//1158 451//1158 443//1158
f 457//1159 452//1159 421//1159
f 459//1160 453//1160 456//1160
f 445//1161 453//1161 459//1161
f 448//1162 459//1162 458//1162
f 448//1163 458//1163 449//1163
f 459//1164 456//1164 451//1164
f 459//1165 452//1165 457//1165
f 459//1166 457//1166 458//1166
f 498//1167 506//1167 501//1167
f 501//1168 502//1168 498//1168
f 502//1169 503//1169 498//1169
f 517//1170 528//1170 507//1170
f 509//1171 507//1171 504//1171
f 504//1172 503//1172 510//1172
f 503//1173 502//1173 510//1173
f 504//1174 510//1174 512//1174
f 515//1175 528//1175 517//1175
f 515//1176 516//1176 528//1176
f 534//1177 515//1177 517//1177
f 517//1178 507//1178 509//1178
f 512//1179 509//1179 504//1179
f 524//1180 232//1180 521//1180
f 516//1181 514//1181 525//1181
f 525//1182 514//1182 533//1182
f 516//1183 533//1183 514//1183
f 529//1184 534//1184 517//1184
f 529//1185 517//1185 509//1185
f 509//1186 512//1186 530//1186
f 529//1187 535//1187 534//1187
f 529//1188 509//1188 530//1188
f 549//1189 506//1189 244//1189
f 244//1190 548//1190 543//1190
f 510//1191 502//1191 545//1191
f 244//1192 543//1192 549//1192
f 501//1193 544//1193 550//1193
f 548//1194 559//1194 543//1194
f 550//1195 560//1195 563//1195
f 546//1196 545//1196 561//1196
f 562//1197 531//1197 547//1197
f 547//1198 546//1198 562//1198
f 570//1199 552//1199 534//1199
f 558//1200 555//1200 553//1200
f 233//1201 575//1201 574//1201
f 249//1202 289//1202 548//1202
f 550//1203 544//1203 560//1203
f 562//1204 546//1204 561//1204
f 553//1205 531//1205 562//1205
f 549//1206 569//1206 560//1206
f 534//1207 535//1207 570//1207
f 563//1208 560//1208 571//1208
f 564//1209 561//1209 573//1209
f 565//1210 289//1210 306//1210
f 580//1211 543//1211 579//1211
f 543//1212 568//1212 579//1212
f 549//1213 580//1213 569//1213
f 569//1214 597//1214 560//1214
f 563//1215 571//1215 545//1215
f 571//1216 560//1216 582//1216
f 573//1217 545//1217 582//1217
f 582//1218 545//1218 571//1218
f 564//1219 573//1219 584//1219
f 605//1220 288//1220 574//1220
f 588//1221 567//1221 554//1221
f 579//1222 568//1222 592//1222
f 579//1223 592//1223 580//1223
f 582//1224 560//1224 597//1224
f 572//1225 569//1225 580//1225
f 570//1226 535//1226 581//1226
f 569//1227 572//1227 597//1227
f 581//1228 535//1228 555//1228
f 584//1229 573//1229 583//1229
f 556//1230 386//1230 237//1230
f 605//1231 574//1231 586//1231
f 610//1232 577//1232 609//1232
f 576//1233 551//1233 554//1233
f 589//1234 567//1234 578//1234
f 591//1235 577//1235 590//1235
f 588//1236 554//1236 557//1236
f 591//1237 568//1237 577//1237
f 568//1238 591//1238 592//1238
f 596//1239 552//1239 570//1239
f 600//1240 581//1240 602//1240
f 600//1241 582//1241 597//1241
f 582//1242 600//1242 601//1242
f 581//1243 555//1243 558//1243
f 602//1244 581//1244 558//1244
f 583//1245 582//1245 601//1245
f 603//1246 585//1246 584//1246
f 603//1247 602//1247 585//1247
f 272//1248 237//1248 386//1248
f 609//1249 587//1249 608//1249
f 611//1250 556//1250 551//1250
f 576//1251 589//1251 613//1251
f 612//1252 576//1252 613//1252
f 613//1253 589//1253 578//1253
f 592//1254 591//1254 635//1254
f 557//1255 552//1255 593//1255
f 593//1256 552//1256 596//1256
f 594//1257 599//1257 572//1257
f 603//1258 601//1258 602//1258
f 605//1259 586//1259 617//1259
f 604//1260 408//1260 606//1260
f 607//1261 616//1261 615//1261
f 608//1262 587//1262 409//1262
f 587//1263 374//1263 409//1263
f 623//1264 610//1264 608//1264
f 222//1265 522//1265 227//1265
f 229//1266 248//1266 230//1266
f 634//1267 618//1267 578//1267
f 634//1268 578//1268 588//1268
f 614//1269 592//1269 635//1269
f 594//1270 614//1270 620//1270
f 410//1271 615//1271 622//1271
f 409//1272 630//1272 608//1272
f 617//1273 606//1273 621//1273
f 608//1274 630//1274 629//1274
f 623//1275 608//1275 629//1275
f 312//1276 295//1276 310//1276
f 624//1277 613//1277 618//1277
f 352//1278 353//1278 351//1278
f 618//1279 625//1279 624//1279
f 588//1280 557//1280 634//1280
f 620//1281 614//1281 627//1281
f 628//1282 596//1282 598//1282
f 593//1283 596//1283 628//1283
f 410//1284 622//1284 630//1284
f 629//1285 630//1285 649//1285
f 631//1286 641//1286 612//1286
f 641//1287 626//1287 612//1287
f 631//1288 612//1288 625//1288
f 626//1289 611//1289 612//1289
f 632//1290 642//1290 625//1290
f 632//1291 618//1291 634//1291
f 633//1292 590//1292 644//1292
f 654//1293 557//1293 593//1293
f 636//1294 627//1294 614//1294
f 639//1295 387//1295 640//1295
f 621//1296 408//1296 434//1296
f 640//1297 386//1297 556//1297
f 630//1298 621//1298 648//1298
f 649//1299 661//1299 629//1299
f 641//1300 631//1300 648//1300
f 648//1301 631//1301 643//1301
f 644//1302 629//1302 661//1302
f 663//1303 636//1303 635//1303
f 620//1304 627//1304 638//1304
f 638//1305 637//1305 620//1305
f 658//1306 640//1306 626//1306
f 658//1307 626//1307 641//1307
f 650//1308 641//1308 648//1308
f 651//1309 633//1309 652//1309
f 646//1310 634//1310 645//1310
f 645//1311 654//1311 653//1311
f 653//1312 646//1312 645//1312
f 655//1313 627//1313 636//1313
f 656//1314 628//1314 637//1314
f 627//1315 657//1315 638//1315
f 657//1316 627//1316 655//1316
f 638//1317 656//1317 637//1317
f 659//1318 454//1318 639//1318
f 650//1319 648//1319 647//1319
f 660//1320 648//1320 643//1320
f 668//1321 643//1321 642//1321
f 666//1322 644//1322 661//1322
f 662//1323 634//1323 646//1323
f 652//1324 644//1324 666//1324
f 661//1325 660//1325 665//1325
f 668//1326 665//1326 643//1326
f 642//1327 662//1327 668//1327
f 652//1328 666//1328 651//1328
f 651//1329 667//1329 663//1329
f 646//1330 668//1330 662//1330
f 651//1331 668//1331 667//1331
f 651//1332 666//1332 668//1332
